<svg width="120" height="40" viewBox="0 0 120 40" fill="none" xmlns="http://www.w3.org/2000/svg">
<path d="M114.737 7.36842H109.474V0H97.9169L92.6021 7.36842H83.1579L80 10.5263V7.36842H72.6316V0H49.4737V7.36842H16.8948L11.579 0H0V25.2631L14.7369 40H29.4737V35.7894L33.6842 40H62.1052V35.7894L66.3158 40H80V35.7894L84.2106 40H110.526L120 30.5263V12.6316L114.737 7.36842ZM17.8948 17.8948H10.5263V20H17.8948V28.421H6.31579L2.10527 24.2106V2.10527H10.5263V9.47369H17.8948V17.8948ZM49.4737 28.421H24.2106L20 24.2106V9.47369H28.421V20H30.5263V9.47369H38.9473V20H41.0527V9.47369H49.4737V28.421ZM60 28.421H51.579V9.47369H60V28.421ZM60 7.36842H51.579V2.10527H60V7.36842ZM77.8948 17.8948H70.5263V20H77.8948V28.421H66.3158L62.1052 24.2106V2.10527H70.5263V9.47369H77.8948V17.8948ZM96.8421 17.8948H88.421V20H96.8421V28.421H84.2106L80 24.2106V13.6842L84.2106 9.47369H96.8421V17.8948ZM117.894 28.421H109.474V17.8948H107.368V28.421H98.9473V2.10527H107.368V9.47369H113.684L117.894 13.6842V28.421Z" fill="#A7A8B4"/>
</svg>
