<svg width="181" height="40" viewBox="0 0 181 40" fill="none" xmlns="http://www.w3.org/2000/svg">
<path d="M30.0475 39.9488L18.2518 39.7318C14.4327 39.6562 10.604 39.8072 6.85978 39.0239C1.16372 37.8536 0.760214 32.1153 0.337936 27.302C-0.243867 20.535 -0.0186531 13.6453 1.07927 6.93492C1.69861 3.16919 4.13843 0.922958 7.91078 0.677572C20.6448 -0.209593 33.4633 -0.105777 46.1691 0.309492C47.511 0.347245 48.8623 0.554879 50.1854 0.790827C56.7166 1.94226 56.8762 8.44498 57.2984 13.919C57.7207 19.4496 57.5424 25.0086 56.7354 30.5015C56.0879 35.0505 54.8493 38.8635 49.6224 39.2315C43.0724 39.7129 36.6726 40.0998 30.1038 39.9771C30.1038 39.9488 30.0663 39.9488 30.0475 39.9488ZM23.1127 28.4345C28.0487 25.5843 32.8908 22.7812 37.7986 19.9499C32.8533 17.0996 28.0205 14.2964 23.1127 11.4651V28.4345Z" fill="#A7A8B4"/>
<path d="M151.911 34.777C151.687 35.702 151.489 36.4287 151.292 37.2025H146.675V1.38525H152.061V14.5985C152.342 14.2398 152.484 14.0888 152.605 13.9284C153.525 12.6543 154.717 11.8237 156.257 11.5028C158.705 11.0215 160.798 12.1068 161.539 14.4758C162.018 15.9481 162.327 17.5242 162.365 19.0627C162.439 23.0172 162.384 26.9623 162.242 30.9168C162.187 32.125 161.821 33.3613 161.361 34.4938C159.849 38.2313 154.914 38.7976 152.465 35.5604C152.315 35.3621 152.174 35.1451 151.911 34.777ZM152.174 24.9237V31.4737C152.174 32.5401 152.737 33.1914 153.798 33.4368C154.839 33.6821 155.684 33.2764 156.105 32.3043C156.284 31.8984 156.462 31.4737 156.472 31.049C156.575 27.0473 156.669 23.0455 156.697 19.0344C156.697 18.2888 156.518 17.5148 156.294 16.7881C155.871 15.4762 154.708 15.0892 153.562 15.8538C152.699 16.439 152.174 17.2695 152.174 18.3737V24.9237ZM137.535 12.0125H143.175V37.2214H138.774C138.614 36.2683 138.455 35.2867 138.267 34.1353C137.967 34.5788 137.788 34.862 137.601 35.1451C136.137 37.2687 134.063 37.9954 131.614 37.6084C129.521 37.2687 128.264 35.6453 127.982 32.9838C127.898 32.191 127.86 31.3887 127.86 30.596C127.841 24.6972 127.86 18.7795 127.86 12.8808V11.9936H133.566V13.0223C133.566 18.723 133.547 24.4141 133.584 30.1145C133.584 30.9263 133.669 31.7663 133.81 32.578C133.969 33.4085 134.57 33.7105 135.377 33.6538C136.681 33.5501 137.582 32.578 137.582 31.2755V13.1262C137.535 12.7581 137.535 12.4183 137.535 12.0125ZM98.7044 11.9936H104.372V13.0601C104.372 18.7324 104.353 24.3951 104.391 30.0485C104.391 30.8603 104.466 31.7003 104.635 32.493C104.851 33.4274 105.395 33.7294 106.324 33.6067C107.61 33.4274 108.389 32.5307 108.398 31.2188V13.1639V12.0313H114.038V37.2214H109.655C109.496 36.2871 109.336 35.3244 109.13 34.1068C108.848 34.5315 108.689 34.777 108.529 35.0318C107.065 37.1931 105.01 37.986 102.505 37.599C100.497 37.297 99.2674 35.8057 98.8919 33.3613C98.7888 32.5968 98.7136 31.8418 98.7136 31.0773C98.6949 24.952 98.6949 18.7984 98.6949 12.6731L98.7044 11.9936ZM95.7952 25.4522C95.7765 26.3017 95.7202 27.1511 95.6732 28.0005C95.4575 30.5487 95.3542 34.1635 93.3085 36.0228C92.0042 37.1931 90.3526 37.6178 88.6448 37.6744C87.8846 37.6934 87.1152 37.6934 86.3551 37.5896C82.761 37.0421 81.0906 35.4471 80.49 31.4737C79.805 26.8868 79.7488 22.2244 80.5652 17.6375C81.4098 12.8902 84.3188 11.2102 88.8418 11.5217C93.0645 11.8237 94.9508 14.6079 95.4481 18.572C95.7202 20.8465 95.8516 23.1494 95.7952 25.4522ZM90.0523 24.584C90.0523 22.97 90.0899 21.3467 90.0335 19.7328C89.9961 18.7984 89.8741 17.8547 89.6769 16.9297C89.4518 15.8632 88.7761 15.3535 87.9315 15.3724C87.1058 15.3912 86.5239 15.9009 86.2236 16.892C86.1205 17.26 86.0078 17.6375 86.0078 18.0057C86.0078 20.535 85.9891 23.0738 85.9703 25.6032C85.9515 27.9627 85.6512 30.4355 86.3926 32.6911C86.6178 33.3801 87.1996 33.7577 87.9596 33.7577C88.7011 33.7577 89.1889 33.3895 89.4611 32.729C89.6769 32.2193 89.8646 31.6624 89.8646 31.115C89.9303 28.9443 90.0523 26.7641 90.0523 24.584ZM72.2135 19.8365C72.7107 17.3921 73.18 15.0044 73.6962 12.6071C74.3436 9.55858 75.0662 6.51011 75.7043 3.45218C75.8638 2.70657 76.164 2.52726 76.8679 2.54613C78.3788 2.60276 79.9176 2.565 81.5318 2.565C81.0062 4.50923 80.49 6.35909 79.9833 8.18064C78.3788 13.9001 76.774 19.6384 75.1882 25.3767C75.0662 25.8202 75.0099 26.3017 75.0099 26.7735C74.991 29.907 75.0099 33.031 75.0099 36.1644V37.1837H69.5015C69.4827 36.9006 69.4452 36.6174 69.4452 36.3343C69.4452 34.56 69.3045 32.7761 69.464 31.0207C69.8675 26.8018 68.535 22.9228 67.4557 18.9967C66.0295 13.8057 64.5843 8.59591 63.158 3.40499C63.0829 3.1596 63.0547 2.89533 62.9797 2.59332H68.6006C69.783 8.3222 70.9747 14.0511 72.2135 19.8365ZM179.988 26.415H170.491C170.595 28.3308 170.632 30.1524 170.829 31.955C170.969 33.2103 171.655 33.7483 172.734 33.7577C173.859 33.7765 174.517 33.2103 174.779 31.9644C174.864 31.5587 174.921 31.1528 174.958 30.7375C174.995 30.3694 175.014 29.973 175.042 29.4445C176.647 29.5294 178.214 29.6238 179.762 29.6898C180.664 32.3797 179.039 35.834 176.309 36.9006C174.161 37.75 171.955 37.75 169.759 37.0987C168.137 36.6174 166.925 35.5793 166.381 33.9843C165.874 32.493 165.395 30.9357 165.292 29.3784C165.011 25.5371 164.908 21.6581 165.489 17.8074C165.592 17.1657 165.771 16.5521 165.968 15.9292C166.757 13.3621 168.474 11.786 171.129 11.5217C172.575 11.3801 174.067 11.4368 175.492 11.6821C177.801 12.088 179.031 13.7585 179.565 15.9481C179.809 16.9768 179.988 18.034 180.025 19.0815C180.035 21.4882 179.988 23.8761 179.988 26.415ZM174.592 23.1021C174.592 21.2051 174.611 19.4214 174.574 17.6281C174.574 17.2034 174.414 16.7598 174.254 16.354C173.935 15.5612 173.269 15.3441 172.471 15.3441C171.674 15.3441 171.167 15.7499 170.969 16.4767C170.369 18.6568 170.567 20.8842 170.585 23.121C172.021 23.1021 173.325 23.1021 174.592 23.1021Z" fill="#A7A8B4"/>
<path d="M118.391 7.19H112.808V2.64087H129.474V7.16169H123.928V37.1842H118.401L118.391 7.19Z" fill="#A7A8B4"/>
</svg>
