<svg width="163" height="40" viewBox="0 0 163 40" fill="none" xmlns="http://www.w3.org/2000/svg">
<path d="M52.9047 15.6419C52.9047 12.789 50.075 9.75898 45.178 9.75898C39.6789 9.75898 33.638 13.7138 32.7148 21.6036C31.7715 29.5721 36.829 33.1137 41.9266 33.1137C47.0243 33.1137 49.6936 31.1658 52.4231 28.5687C50.075 25.6763 47.0444 27.0142 46.4624 27.3094C45.8202 27.6242 44.9973 28.0571 43.3115 28.0571C41.3446 28.0571 39.3378 27.1913 39.3378 23.5908C51.9414 22.3709 52.9047 18.4949 52.9047 15.6419ZM46.6631 16.1141C46.5829 16.9996 46.2215 18.5146 39.8394 19.3606C41.1841 14.6778 43.753 14.3237 44.9371 14.3237C46.041 14.3237 46.7434 15.1697 46.6631 16.1141ZM25.3091 16.8814C25.3091 16.8814 22.5998 25.2238 22.379 25.9124C22.2986 25.2041 20.3117 10.2312 20.3117 10.2312C15.6957 10.2312 13.2272 13.4579 11.9227 16.8618C11.9227 16.8618 8.63129 25.2238 8.35032 25.9321C8.33025 25.2828 7.84858 16.9601 7.84858 16.9601C7.56761 12.789 3.67412 10.2509 0.523193 10.2509L4.3364 32.9366C9.17317 32.9169 11.7822 29.7098 13.147 26.306C13.147 26.306 16.0571 18.9277 16.1774 18.5932C16.1975 18.908 18.2646 32.9366 18.2646 32.9366C23.1215 32.9366 25.7305 29.9262 27.1354 26.6404L33.939 10.2509C29.1424 10.2509 26.6136 13.4579 25.3091 16.8814ZM70.7265 9.71962C67.7361 9.71962 65.4482 11.3133 63.5215 13.6547V13.635L65.2475 0C61.2738 0 58.0425 3.38416 57.4204 8.42106L54.41 32.7594C56.6979 32.7594 59.1263 32.1102 60.4309 30.4574C61.5949 31.9331 63.3409 33.1137 65.9299 33.1137C72.6331 33.1137 77.2291 25.4796 77.2291 18.3178C77.1889 11.7856 73.9578 9.71962 70.7265 9.71962ZM70.1043 21.4264C69.4019 25.4206 67.1341 28.1358 64.9464 28.1358C62.7389 28.1358 61.7955 27.1717 61.7955 27.1717C62.217 23.6694 62.4779 21.5249 63.2808 19.6753C64.0835 17.8259 65.9901 14.8746 67.977 14.8746C69.9238 14.8746 70.8068 17.4127 70.1043 21.4264ZM93.9671 10.2509H89.2909L89.3109 10.0148C89.632 7.0241 90.3545 5.45008 92.7427 5.19429C94.3684 5.03689 95.091 4.21052 95.2715 3.30546C95.4121 2.59714 95.8536 0.137728 95.8536 0.137728C86.4611 0.0787014 83.5109 4.05312 82.7482 10.1131L82.7281 10.2509H82.6277C81.1024 10.2509 79.4166 11.9429 79.1356 14.0876L79.0353 14.8746H82.1662L79.5371 36.1633L78.7343 39.9803C78.8346 39.9803 78.955 40 79.0554 40C83.4506 39.8426 86.2603 36.4388 86.8825 31.5002L88.9296 14.8746H90.3946C91.8396 14.8746 93.5255 13.4579 93.8265 11.0969L93.9671 10.2509ZM118.291 9.85736C112.892 9.85736 107.795 13.7531 106.23 19.8721C104.664 25.9911 107.032 33.2317 114.98 33.2317C122.908 33.2317 127.483 25.696 127.483 19.4196C127.483 13.1824 123.169 9.85736 118.291 9.85736ZM120.479 21.2297C120.198 24.0039 118.953 28.2144 115.542 28.2144C112.11 28.2144 112.592 23.2957 112.933 20.9542C113.294 18.4554 114.719 14.8942 117.79 14.8942C120.539 14.8942 120.8 18.1013 120.479 21.2297ZM154.155 16.8814C154.155 16.8814 151.447 25.2238 151.225 25.9124C151.145 25.2041 149.159 10.2312 149.159 10.2312C144.542 10.2312 142.074 13.4579 140.769 16.8618C140.769 16.8618 137.478 25.2238 137.197 25.9321C137.177 25.2828 136.695 16.9601 136.695 16.9601C136.414 12.789 132.521 10.2509 129.37 10.2509L133.163 32.9366C138 32.9169 140.609 29.7098 141.973 26.306C141.973 26.306 144.883 18.9277 144.984 18.5932C145.024 18.908 147.071 32.9366 147.071 32.9366C151.928 32.9366 154.537 29.9262 155.942 26.6404L162.745 10.2509C157.969 10.2509 155.44 13.4579 154.155 16.8814ZM98.3823 0.137728L94.4488 31.2444L93.646 35.0811C93.7463 35.0811 93.8668 35.1009 93.9671 35.1009C98.2018 35.0418 101.212 31.4019 101.774 26.8176L104.042 8.97197C104.724 3.52189 101.413 0.137728 98.3823 0.137728Z" fill="#A7A8B4"/>
</svg>
