<svg width="191" height="44" viewBox="0 0 191 44" fill="none" xmlns="http://www.w3.org/2000/svg">
<path d="M36.9998 20.2945L18.0297 1.32437C17.8327 1.12728 17.5987 0.970932 17.3413 0.864264C17.0838 0.757595 16.8078 0.702698 16.5291 0.702698C16.2505 0.702698 15.9745 0.757595 15.717 0.864264C15.4596 0.970932 15.2256 1.12728 15.0286 1.32437L0.680581 15.4965C0.283469 15.895 0.0604858 16.4345 0.0604858 16.9971C0.0604858 17.5596 0.283469 18.0992 0.680581 18.4976L4.78657 22.6036L21.7687 39.5475L36.9998 25.0733C37.6334 24.4396 37.9894 23.5801 37.9894 22.6839C37.9894 21.7877 37.6334 20.9283 36.9998 20.2945Z" fill="#0E1552"/>
<path d="M54.4407 17.129L29.3192 42.3078C28.6855 42.9414 27.826 43.2973 26.9298 43.2973C26.0336 43.2973 25.1742 42.9414 24.5404 42.3078L10.3262 28.0974C10.96 28.731 11.8194 29.087 12.7156 29.087C13.6118 29.087 14.4713 28.731 15.105 28.0974L40.2265 2.91862C40.6249 2.52151 41.1645 2.29852 41.727 2.29852C42.2896 2.29852 42.8292 2.52151 43.2276 2.91862L54.4483 14.1393C54.8419 14.5378 55.0619 15.0757 55.0605 15.6357C55.059 16.1958 54.8363 16.7325 54.4407 17.129Z" fill="#5B46FF"/>
<path d="M24.3378 11.7767C24.9151 12.354 25.4847 12.8777 25.997 13.3288C26.1593 13.4665 26.2911 13.6365 26.3839 13.8279C26.4767 14.0194 26.5286 14.2282 26.5362 14.4408C26.5437 14.6535 26.5068 14.8654 26.4278 15.063C26.3488 15.2605 26.2294 15.4395 26.0773 15.5883L15.8964 25.7691C15.1602 26.505 14.1618 26.9184 13.1209 26.9184C12.0799 26.9184 11.0816 26.505 10.3453 25.7691C9.60923 25.0322 9.19576 24.0332 9.19576 22.9917C9.19576 21.9501 9.60923 20.9511 10.3453 20.2142L20.5262 10.0333C20.6752 9.88209 20.8541 9.76353 21.0514 9.6852C21.2488 9.60688 21.4603 9.57051 21.6725 9.57842C21.8847 9.58634 22.0929 9.63834 22.2839 9.73115C22.4749 9.82395 22.6444 9.95552 22.7818 10.1175C23.2329 10.6297 23.7605 11.207 24.3378 11.7767Z" fill="#FFEE2B"/>
<path d="M78.9525 26.82H92.2005V31.5H72.4005V27.9L85.2525 10.98H73.1205V6.3H91.4805V9.9L78.9525 26.82ZM99.7492 25.92C99.7492 27.216 101.261 27.9 103.169 27.9C105.257 27.9 107.669 27.18 107.669 24.3V23.688H103.889C101.045 23.688 99.7492 24.444 99.7492 25.92ZM94.8172 26.1C94.8172 21.24 99.3172 20.304 103.169 20.304H107.669V19.62C107.669 17.928 106.553 16.74 104.177 16.74C102.233 16.74 100.361 17.244 98.9572 18.324L96.3292 15.3C98.3452 13.536 100.361 12.42 104.033 12.42C109.181 12.42 112.529 15.156 112.529 19.62V31.5H107.669V29.556C106.625 30.996 104.825 31.86 102.089 31.86C97.4452 31.86 94.8172 30.024 94.8172 26.1ZM115.556 7.128C115.556 5.472 116.888 4.14 118.544 4.14C120.2 4.14 121.532 5.472 121.532 7.128C121.532 8.784 120.2 10.116 118.544 10.116C116.888 10.116 115.556 8.784 115.556 7.128ZM116.132 12.78H120.992V31.5H116.132V12.78ZM138.088 20.088C137.656 17.856 136.396 16.74 133.948 16.74C131.5 16.74 129.772 17.856 129.16 20.088H138.088ZM124.048 22.14C124.048 16.416 128.224 12.42 133.948 12.42C139.312 12.42 143.128 16.416 143.128 22.14V23.58H129.016C129.484 26.208 131.284 27.54 134.02 27.54C136.324 27.54 137.62 27.072 139.312 25.308L142.516 28.188C140.752 30.528 137.44 31.86 133.948 31.86C127.864 31.86 124.048 27.864 124.048 22.14ZM160.236 22.14C160.236 19.044 158.184 16.92 155.196 16.92C152.208 16.92 150.3 19.044 150.3 22.14C150.3 25.236 152.208 27.36 155.196 27.36C158.184 27.36 160.236 25.236 160.236 22.14ZM165.096 5.22V31.5H160.236V28.656C159.156 30.636 157.284 31.86 154.116 31.86C148.932 31.86 145.476 27.864 145.476 22.14C145.476 16.416 148.932 12.42 154.116 12.42C157.284 12.42 159.156 13.644 160.236 15.624V5.22H165.096ZM186.526 31.5H181.666V29.448C180.73 30.96 179.182 31.86 176.626 31.86C172.342 31.86 169.606 29.304 169.606 24.66V12.78H174.466V23.58C174.466 26.1 175.186 27.36 177.706 27.36C180.154 27.36 181.666 26.1 181.666 22.86V12.78H186.526V31.5Z" fill="black"/>
</svg>
