<svg width="125" height="40" viewBox="0 0 125 40" fill="none" xmlns="http://www.w3.org/2000/svg">
<path d="M15.3797 0H16.4864C20.3282 0.0822431 24.1075 1.60374 26.822 4.2972C25.8198 5.30468 24.7967 6.27104 23.8152 7.27851C22.291 5.9215 20.4536 4.8729 18.449 4.5028C15.484 3.88598 12.2894 4.44113 9.80465 6.10655C7.09022 7.85421 5.25276 10.815 4.85604 13.9813C4.41755 17.1066 5.3154 20.3962 7.38254 22.8225C9.36616 25.1869 12.3938 26.6673 15.5258 26.7701C18.449 26.9346 21.4976 26.0504 23.6273 24.0356C25.2978 22.6168 26.0703 20.4579 26.3209 18.3608C22.8548 18.3608 19.3887 18.3814 15.9226 18.3608V14.1253H30.5179C31.2695 18.6691 30.1837 23.7888 26.6759 27.0374C24.3373 29.3402 21.1009 30.6972 17.8018 30.9645C14.6071 31.273 11.308 30.6766 8.46831 29.1552C5.06484 27.3663 2.35041 24.3439 1.01408 20.7869C-0.238737 17.5178 -0.259617 13.8168 0.909675 10.5271C1.97457 7.52525 4.02083 4.8729 6.65173 3.02243C9.17824 1.19253 12.2476 0.185047 15.3797 0Z" fill="#A7A8B4"/>
<path d="M99.1099 1.06934H103.578V30.4301C102.096 30.4301 100.592 30.4506 99.1099 30.4095C99.1308 20.6431 99.1099 10.8562 99.1099 1.06934Z" fill="#A7A8B4"/>
<path d="M40.4563 11.2469C43.2126 10.7328 46.1984 11.3085 48.4744 12.9327C50.5415 14.3721 51.9823 16.6337 52.4207 19.1009C52.9845 21.9589 52.2746 25.0841 50.3954 27.3458C48.37 29.8748 45.05 31.2318 41.8136 31.0261C38.8486 30.8617 35.9671 29.4018 34.2131 27.0168C32.2296 24.385 31.7493 20.7664 32.835 17.6823C33.9208 14.3721 36.9902 11.8431 40.4563 11.2469ZM41.0828 15.1533C39.9552 15.4412 38.9112 16.0785 38.1596 16.9832C36.1341 19.3683 36.2595 23.2543 38.4937 25.4748C39.7673 26.7495 41.6883 27.3458 43.4631 26.9962C45.1127 26.7084 46.5534 25.6187 47.3469 24.1795C48.725 21.7327 48.3282 18.3608 46.2193 16.4486C44.8621 15.2151 42.8784 14.701 41.0828 15.1533Z" fill="#A7A8B4"/>
<path d="M62.5875 11.2471C65.7403 10.6509 69.1857 11.5144 71.5451 13.6939C75.3871 17.0864 75.8046 23.4397 72.5264 27.3463C70.5429 29.8136 67.3272 31.1706 64.1535 31.0267C61.1258 30.9444 58.1399 29.464 56.3443 27.0173C54.3189 24.3238 53.8804 20.6228 55.0288 17.4771C56.1773 14.2697 59.184 11.8229 62.5875 11.2471ZM63.2139 15.1538C62.0864 15.4415 61.0424 16.079 60.2906 16.9631C58.2862 19.307 58.3697 23.1313 60.5204 25.3724C61.794 26.7089 63.7777 27.3668 65.6151 26.9967C67.2438 26.6884 68.7053 25.6192 69.4988 24.1799C70.856 21.7126 70.4593 18.3406 68.3296 16.4285C66.9723 15.1949 64.9887 14.7014 63.2139 15.1538Z" fill="#A7A8B4"/>
<path d="M81.3614 12.4393C83.7626 10.9589 86.9572 10.5477 89.5463 11.8225C90.3607 12.1721 91.0289 12.7683 91.6761 13.3645C91.697 12.8094 91.6762 12.2337 91.697 11.658C93.096 11.6785 94.495 11.658 95.9149 11.6785V29.8131C95.894 32.5477 95.1841 35.4468 93.1795 37.4412C90.9871 39.6412 87.6253 40.3196 84.5978 39.8673C81.3614 39.3944 78.5425 37.0711 77.2897 34.1309C78.5425 33.5347 79.8579 33.0618 81.1525 32.5065C81.8834 34.1925 83.3658 35.6319 85.2241 35.9608C87.0824 36.2897 89.2332 35.8374 90.4442 34.316C91.7388 32.7533 91.7388 30.615 91.6761 28.7029C90.7157 29.6281 89.609 30.4506 88.2727 30.7589C85.3703 31.5608 82.1757 30.5739 79.9415 28.6411C77.6864 26.7085 76.3501 23.7271 76.4754 20.7664C76.5379 17.4151 78.4589 14.187 81.3614 12.4393ZM85.6836 15.0711C84.4098 15.2767 83.2197 15.9757 82.4054 16.9422C80.4426 19.2449 80.4426 22.9253 82.4262 25.187C83.5537 26.5235 85.3703 27.2636 87.1242 27.0786C88.7738 26.9141 90.2981 25.886 91.1124 24.4674C92.4905 22.0617 92.2608 18.7926 90.4024 16.6954C89.254 15.4001 87.4166 14.7627 85.6836 15.0711Z" fill="#A7A8B4"/>
<path d="M108.941 13.4876C111.447 11.1848 115.309 10.4034 118.525 11.6166C121.574 12.7473 123.516 15.6053 124.497 18.5455C119.966 20.396 115.456 22.2258 110.925 24.0763C111.551 25.2483 112.511 26.3175 113.806 26.7493C115.623 27.3866 117.795 27.1605 119.319 25.9679C119.925 25.5156 120.405 24.9193 120.864 24.3436C122.013 25.1044 123.16 25.8445 124.309 26.6053C122.68 29.0109 119.945 30.6969 117.001 30.9641C113.744 31.3548 110.278 30.1212 108.169 27.6128C104.703 23.6651 105.037 17.0445 108.941 13.4876ZM111.176 17.2913C110.465 18.2988 110.173 19.5324 110.194 20.7455C113.221 19.5119 116.249 18.2782 119.277 17.024C118.776 15.8725 117.565 15.1735 116.333 14.9884C114.349 14.639 112.283 15.6875 111.176 17.2913Z" fill="#A7A8B4"/>
</svg>
