<svg width="35" height="35" viewBox="0 0 35 35" fill="none" xmlns="http://www.w3.org/2000/svg">
<g clip-path="url(#clip0_519_235)">
<path d="M27.2218 27.7862C22.2215 23.8764 25.7504 7.79503 25.7504 7.79503C25.7504 7.79503 31.2239 7.79503 31.8617 7.79503C32.4995 7.79503 35 7.394 35 4.39971C35 0.716322 31.9444 0.942652 31.9444 0.942652C31.9444 0.942652 15.1945 0.942652 9.44342 0.942652C5.74994 0.942652 2.41634 5.17147 0.502818 8.19607C-0.515855 9.81143 0.0602578 10.2641 1.80955 9.5028C7.94179 6.81751 9.67013 7.78456 9.67013 7.78456C10.1022 9.85258 10.2462 19.1845 8.6724 22.8675C7.07762 26.335 4.13532 30.7281 8.45617 33.3105C11.8309 35.224 15.3699 31.2937 15.0201 24.6059C14.8555 21.0666 14.5776 7.79466 14.5776 7.79466H20.216C20.0405 9.86268 19.0843 20.4186 20.0824 26.6743C21.1213 37.1173 32.4696 35.0905 34.5889 29.1752C35.1134 27.5393 34.9903 26.2838 34.599 25.3369C33.8785 23.5779 32.6746 23.4855 32.8089 24.3082C32.8916 24.8326 32.84 25.347 32.7573 25.8105C32.51 27.2407 29.5883 29.4831 27.2218 27.7862Z" fill="#4884FC"/>
</g>
<defs>
<clipPath id="clip0_519_235">
<rect width="35" height="35" fill="white"/>
</clipPath>
</defs>
</svg>
