<svg width="35" height="35" viewBox="0 0 35 35" fill="none" xmlns="http://www.w3.org/2000/svg">
<g clip-path="url(#clip0_519_236)">
<path d="M3.11739 12.3765C3.11739 11.8102 2.65829 11.3511 2.092 11.3511H1.02539C0.459102 11.3511 0 11.8102 0 12.3765C0 12.9428 0.459102 13.4019 1.02539 13.4019H2.092C2.65829 13.4019 3.11739 12.9428 3.11739 12.3765Z" fill="#FF8755"/>
<path d="M3.65177 4.14538C4.57462 4.14538 5.03441 3.00713 4.35129 2.37008L3.57124 1.6426C3.15705 1.25644 2.50819 1.27914 2.12203 1.69319C1.73579 2.10738 1.75849 2.75618 2.17261 3.14241C2.80288 3.65688 3.02608 4.14538 3.65177 4.14538V4.14538Z" fill="#FF8755"/>
<path d="M2.95263 20.7396L2.17258 21.467C1.75839 21.8532 1.73577 22.5021 2.12193 22.9162C2.5083 23.3305 3.15703 23.353 3.57122 22.9669L4.35127 22.2394C4.76546 21.8532 4.78808 21.2043 4.40192 20.7902C4.01562 20.376 3.36682 20.3533 2.95263 20.7396V20.7396Z" fill="#FF8755"/>
<path d="M33.9746 11.2075H32.908C32.3417 11.2075 31.8826 11.6666 31.8826 12.2329C31.8826 12.7992 32.3417 13.2583 32.908 13.2583H33.9746C34.5409 13.2583 35 12.7992 35 12.2329C35 11.6666 34.5409 11.2075 33.9746 11.2075Z" fill="#FF8755"/>
<path d="M32.0474 20.7395C31.6332 20.3534 30.9844 20.376 30.5981 20.7901C30.2119 21.2043 30.2345 21.8531 30.6487 22.2394L31.4288 22.9668C31.8438 23.3538 32.4926 23.3294 32.8781 22.9161C33.2642 22.5019 33.2416 21.8531 32.8274 21.4669L32.0474 20.7395Z" fill="#FF8755"/>
<path d="M32.0473 3.8699L32.8274 3.14249C33.2416 2.75626 33.2642 2.10739 32.878 1.69327C32.4917 1.27915 31.8429 1.25638 31.4288 1.64268L30.6487 2.37009C30.2345 2.75632 30.2119 3.40519 30.5981 3.81931C30.9844 4.2335 31.6333 4.25606 32.0473 3.8699Z" fill="#FF8755"/>
<path d="M11.6895 27.7881C11.6895 29.0635 12.4705 30.1597 13.5792 30.625H21.4208C22.5295 30.1597 23.3105 29.0635 23.3105 27.7881V26.3184H11.6895V27.7881Z" fill="#FF8755"/>
<path d="M13.7402 33.9746C13.7402 34.5406 14.1996 35 14.7656 35H20.2344C20.8004 35 21.2598 34.5406 21.2598 33.9746V32.6758H13.7402V33.9746Z" fill="#FF8755"/>
<path d="M29.3636 12.3047C32.2813 9.32633 30.5955 4.30301 26.5126 3.65271C25.4876 0.244922 21.3692 -1.1116 18.5254 1.02791V24.6435H21.6016C23.9161 24.6435 25.891 23.1233 26.5228 20.955C30.5834 20.3001 32.2867 15.2886 29.3636 12.3047V12.3047ZM20.5762 6.22069C20.5762 5.6544 21.0353 5.1953 21.6016 5.1953C22.1679 5.1953 22.627 5.6544 22.627 6.22069C22.627 7.27076 23.025 7.46313 23.818 7.84628C24.5687 8.20899 25.7031 8.7571 25.7031 10.3223C25.7031 10.8885 25.244 11.3476 24.6777 11.3476C24.1114 11.3476 23.6523 10.8885 23.6523 10.3223C23.6523 10.0973 23.6523 10.0438 22.9258 9.6928C22.0471 9.26822 20.5762 8.55756 20.5762 6.22069ZM26.6582 15.8946C25.4777 17.5305 23.6541 18.2093 23.1348 18.2093C22.6886 18.2093 22.2782 17.9159 22.1494 17.4656C21.9937 16.9211 22.3089 16.3535 22.8534 16.1978C23.701 15.9554 24.4672 15.4262 24.9952 14.6945C25.3266 14.2353 25.9675 14.1317 26.4267 14.4631C26.8859 14.7945 26.9896 15.4354 26.6582 15.8946V15.8946Z" fill="#FF8755"/>
<path d="M16.4746 24.6435V1.02791C13.6309 -1.11153 9.51247 0.244785 8.48749 3.6527C4.40227 4.30342 2.72001 9.32763 5.63643 12.3047C2.71229 15.2896 4.41854 20.3003 8.47731 20.955C9.11106 23.1304 11.0901 24.6435 13.3985 24.6435H16.4746ZM11.182 7.84628C11.975 7.46312 12.373 7.27083 12.373 6.22069C12.373 5.6544 12.8321 5.1953 13.3984 5.1953C13.9647 5.1953 14.4238 5.6544 14.4238 6.22069C14.4238 8.55756 12.9529 9.26822 12.0742 9.6928C11.3476 10.0438 11.3476 10.0973 11.3476 10.3223C11.3476 10.8885 10.8885 11.3476 10.3223 11.3476C9.75597 11.3476 9.29687 10.8885 9.29687 10.3223C9.29687 8.7571 10.4313 8.20899 11.182 7.84628ZM12.8506 17.4656C12.7219 17.9158 12.3114 18.2093 11.8652 18.2093C11.3302 18.2093 9.62574 17.5358 8.49064 16.0921C8.14057 15.6469 8.21774 15.0023 8.6629 14.6523C9.10819 14.3022 9.75275 14.3794 10.1028 14.8245C10.6135 15.4741 11.3329 15.9651 12.1466 16.1977C12.6912 16.3535 13.0063 16.9211 12.8506 17.4656V17.4656Z" fill="#FF8755"/>
</g>
<defs>
<clipPath id="clip0_519_236">
<rect width="35" height="35" fill="white"/>
</clipPath>
</defs>
</svg>
