<svg width="70" height="71" viewBox="0 0 70 71" fill="none" xmlns="http://www.w3.org/2000/svg">
<rect y="0.0959473" width="70" height="70" rx="35" fill="#4ACA67" fill-opacity="0.1"/>
<path fill-rule="evenodd" clip-rule="evenodd" d="M49.5834 35.096C49.5834 41.9707 49.5834 45.408 47.4477 47.5437C45.312 49.6794 41.8747 49.6794 35 49.6794C28.9713 49.6794 25.586 49.6794 23.4038 48.239L48.143 23.4998C49.5834 25.682 49.5834 29.0673 49.5834 35.096ZM44.8438 42.3877C44.8438 42.9918 44.3541 43.4814 43.75 43.4814H36.4584C35.8543 43.4814 35.3646 42.9918 35.3646 42.3877C35.3646 41.7836 35.8543 41.2939 36.4584 41.2939H43.75C44.3541 41.2939 44.8438 41.7836 44.8438 42.3877Z" fill="#4ACA67"/>
<path fill-rule="evenodd" clip-rule="evenodd" d="M35 20.5127C28.1254 20.5127 24.688 20.5127 22.5524 22.6484C20.4167 24.7841 20.4167 28.2214 20.4167 35.096C20.4167 41.1248 20.4167 44.5101 21.857 46.6922L46.5962 21.953C44.4141 20.5127 41.0288 20.5127 35 20.5127ZM29.1667 24.5231C29.7707 24.5231 30.2604 25.0127 30.2604 25.6168L30.2604 28.1689H32.8125C33.4166 28.1689 33.9063 28.6586 33.9063 29.2627C33.9063 29.8667 33.4166 30.3564 32.8125 30.3564H30.2604L30.2604 32.9085C30.2604 33.5125 29.7707 34.0022 29.1667 34.0022C28.5626 34.0022 28.0729 33.5125 28.0729 32.9085L28.0729 30.3564H25.5209C24.9168 30.3564 24.4271 29.8667 24.4271 29.2627C24.4271 28.6586 24.9168 28.1689 25.5209 28.1689H28.0729V25.6168C28.0729 25.0127 28.5626 24.5231 29.1667 24.5231Z" fill="#4ACA67"/>
</svg>
