<svg width="70" height="71" viewBox="0 0 70 71" fill="none" xmlns="http://www.w3.org/2000/svg">
<rect y="0.0959473" width="70" height="70" rx="35" fill="#FB6238" fill-opacity="0.1"/>
<path fill-rule="evenodd" clip-rule="evenodd" d="M20.0001 35.0959V29.0959C20.0001 24.8533 20.0001 22.732 21.3181 21.414C22.6361 20.0959 24.7574 20.0959 29.0001 20.0959H41.0001C45.2427 20.0959 47.364 20.0959 48.682 21.414C50.0001 22.732 50.0001 24.8533 50.0001 29.0959V35.0959C50.0001 39.3386 50.0001 41.4599 48.682 42.7779C47.9675 43.4924 47.017 43.8196 45.6204 43.9694C45.5094 43.8195 45.4043 43.7015 45.3294 43.6191C45.1552 43.4275 44.9342 43.2097 44.7201 42.9986L42.4806 40.7902L41.6536 39.9524C41.11 36.7686 38.3383 34.3459 35.0002 34.3459C31.662 34.3459 28.8903 36.7686 28.3467 39.9524L27.5197 40.7902L25.2804 42.9984C25.0661 43.2096 24.8452 43.4275 24.6709 43.6191C24.596 43.7015 24.4909 43.8196 24.3799 43.9694C22.9832 43.8196 22.0326 43.4925 21.3181 42.7779C20.0001 41.4599 20.0001 39.3386 20.0001 35.0959ZM30.5001 24.9709C29.8787 24.9709 29.3751 25.4746 29.3751 26.0959C29.3751 26.7173 29.8787 27.2209 30.5001 27.2209H39.5001C40.1214 27.2209 40.6251 26.7173 40.6251 26.0959C40.6251 25.4746 40.1214 24.9709 39.5001 24.9709H30.5001ZM26.3751 31.3459C26.3751 30.7246 26.8787 30.2209 27.5001 30.2209H42.5001C43.1214 30.2209 43.6251 30.7246 43.6251 31.3459C43.6251 31.9673 43.1214 32.4709 42.5001 32.4709H27.5001C26.8787 32.4709 26.3751 31.9673 26.3751 31.3459Z" fill="#FB6238"/>
<path d="M39.5001 41.0959C39.5001 43.5812 37.4853 45.5959 35.0001 45.5959C32.5148 45.5959 30.5001 43.5812 30.5001 41.0959C30.5001 38.6107 32.5148 36.5959 35.0001 36.5959C37.4853 36.5959 39.5001 38.6107 39.5001 41.0959Z" fill="#FB6238"/>
<path d="M30.5017 40.9721C30.5006 41.0132 30.5001 41.0545 30.5001 41.0959C30.5001 43.5812 32.5148 45.5959 35.0001 45.5959C37.4853 45.5959 39.5001 43.5812 39.5001 41.0959C39.5001 41.0545 39.4995 41.0132 39.4984 40.9721C39.4328 38.5441 37.4439 36.5959 35.0001 36.5959C32.6701 36.5959 30.7537 38.3667 30.5233 40.6358C30.512 40.7468 30.5048 40.8589 30.5017 40.9721Z" fill="#FB6238"/>
<path d="M28.5136 42.97L26.8929 44.5682C26.4068 45.0475 26.1638 45.2872 26.0796 45.4902C25.888 45.9527 26.052 46.4657 26.4693 46.709C26.6524 46.8158 26.9827 46.8491 27.6434 46.9156C28.0164 46.9532 28.2029 46.972 28.3591 47.029C28.7088 47.1567 28.9808 47.4249 29.1102 47.7697C29.1681 47.9238 29.1871 48.1077 29.2252 48.4755C29.2927 49.1269 29.3264 49.4526 29.4347 49.6332C29.6814 50.0447 30.2017 50.2065 30.6708 50.0175C30.8766 49.9345 31.1196 49.6949 31.6058 49.2155L33.2264 47.6105C30.9576 46.9943 29.1638 45.2245 28.5136 42.97Z" fill="#FB6238"/>
<path d="M36.7737 47.6105L38.3944 49.2155C38.8805 49.6949 39.1235 49.9345 39.3294 50.0175C39.7984 50.2065 40.3187 50.0447 40.5654 49.6332C40.6737 49.4526 40.7074 49.1269 40.7749 48.4755C40.813 48.1077 40.8321 47.9238 40.8899 47.7697C41.0193 47.4249 41.2914 47.1567 41.6411 47.029C41.7973 46.972 41.9838 46.9532 42.3568 46.9156C43.0174 46.8491 43.3477 46.8158 43.5308 46.709C43.9481 46.4657 44.1121 45.9527 43.9205 45.4902C43.8364 45.2872 43.5933 45.0475 43.1072 44.5682L41.4865 42.97C40.8363 45.2245 39.0425 46.9943 36.7737 47.6105Z" fill="#FB6238"/>
</svg>
