<svg width="28" height="23" viewBox="0 0 28 23" fill="none" xmlns="http://www.w3.org/2000/svg">
<path d="M18.6228 5.26562C18.6228 7.9235 16.4682 10.0781 13.8103 10.0781C11.1524 10.0781 8.9978 7.9235 8.9978 5.26562C8.9978 2.60775 11.1524 0.453125 13.8103 0.453125C16.4682 0.453125 18.6228 2.60775 18.6228 5.26562Z" fill="white"/>
<path d="M22.0603 17.6406C22.0603 20.2985 18.3667 22.4531 13.8103 22.4531C9.25395 22.4531 5.5603 20.2985 5.5603 17.6406C5.5603 14.9828 9.25395 12.8281 13.8103 12.8281C18.3667 12.8281 22.0603 14.9828 22.0603 17.6406Z" fill="white"/>
<path d="M7.10312 1.82812C7.34713 1.82812 7.58534 1.85207 7.81538 1.89765C7.25498 2.893 6.9353 4.04198 6.9353 5.26562C6.9353 6.45947 7.2396 7.58225 7.77487 8.56062C7.55742 8.60114 7.33284 8.62236 7.10312 8.62236C5.1583 8.62236 3.58171 7.10142 3.58171 5.22524C3.58171 3.34907 5.1583 1.82812 7.10312 1.82812Z" fill="white"/>
<path d="M4.80039 21.0588C4.01951 20.1254 3.4978 18.9799 3.4978 17.6406C3.4978 16.3423 3.98809 15.2261 4.7295 14.3086C2.11056 14.5118 0.0603027 15.9442 0.0603027 17.681C0.0603027 19.4342 2.14659 20.8771 4.80039 21.0588Z" fill="white"/>
<path d="M20.6852 5.26562C20.6852 6.45947 20.3809 7.58225 19.8456 8.56062C20.063 8.60114 20.2876 8.62236 20.5173 8.62236C22.4622 8.62236 24.0387 7.10142 24.0387 5.22524C24.0387 3.34907 22.4622 1.82812 20.5173 1.82812C20.2733 1.82812 20.0351 1.85207 19.8051 1.89765C20.3655 2.893 20.6852 4.04198 20.6852 5.26562Z" fill="white"/>
<path d="M22.8201 21.0588C25.4739 20.8771 27.5602 19.4342 27.5602 17.681C27.5602 15.9442 25.5099 14.5118 22.891 14.3086C23.6324 15.2261 24.1227 16.3423 24.1227 17.6406C24.1227 18.9799 23.601 20.1254 22.8201 21.0588Z" fill="white"/>
</svg>
