<svg width="181" height="41" viewBox="0 0 181 41" fill="none" xmlns="http://www.w3.org/2000/svg">
<path d="M20.7945 0.519531C18.1733 0.519531 15.5777 1.03703 13.156 2.04194C10.7342 3.04717 8.53403 4.52024 6.68036 6.37741C4.82685 8.23458 3.35666 10.4392 2.35349 12.8656C1.35049 15.2922 0.834106 17.8929 0.834106 20.5193C0.834106 23.1457 1.35049 25.7465 2.35349 28.173C3.35666 30.5994 4.82685 32.8041 6.68036 34.6613C8.53403 36.5184 10.7342 37.9915 13.156 38.9967C15.5777 40.0016 18.1733 40.5191 20.7945 40.5191V30.5192C19.4838 30.5192 18.1862 30.2605 16.9753 29.758C15.7644 29.2554 14.6641 28.5189 13.7375 27.5903C12.8108 26.6617 12.0757 25.5594 11.5741 24.3461C11.0725 23.1329 10.8143 21.8325 10.8143 20.5193C10.8143 19.2062 11.0725 17.9058 11.5741 16.6925C12.0757 15.4792 12.8108 14.3769 13.7375 13.4484C14.6641 12.5197 15.7644 11.7832 16.9753 11.2807C18.1862 10.7781 19.4838 10.5195 20.7945 10.5195V0.519531Z" fill="white"/>
<path d="M20.7909 27.1866C24.4656 27.1866 27.4444 24.2019 27.4444 20.52C27.4444 16.8382 24.4656 13.8535 20.7909 13.8535C17.1163 13.8535 14.1376 16.8382 14.1376 20.52C14.1376 24.2019 17.1163 27.1866 20.7909 27.1866Z" fill="white"/>
<path d="M0.834106 20.5195C0.834106 23.1459 1.35049 25.7467 2.35349 28.1731C3.35666 30.5997 4.82685 32.8042 6.68036 34.6615C8.53403 36.5185 10.7342 37.9918 13.156 38.9968C15.5777 40.0019 18.1733 40.5192 20.7945 40.5192C23.4158 40.5192 26.0114 40.0019 28.433 38.9968C30.8548 37.9918 33.0551 36.5185 34.9087 34.6615C36.7622 32.8042 38.2324 30.5997 39.2355 28.1731C40.2385 25.7467 40.7549 23.1459 40.7549 20.5195H30.7747C30.7747 21.8328 30.5165 23.1331 30.0149 24.3464C29.5135 25.5595 28.7783 26.662 27.8517 27.5905C26.9249 28.519 25.8246 29.2556 24.6138 29.7581C23.403 30.2608 22.1052 30.5195 20.7945 30.5195C19.4838 30.5195 18.1862 30.2608 16.9753 29.7581C15.7644 29.2556 14.6641 28.519 13.7375 27.5905C12.8108 26.662 12.0757 25.5595 11.5741 24.3464C11.0725 23.1331 10.8143 21.8328 10.8143 20.5195H0.834106Z" fill="white"/>
<path d="M27.4445 20.52C27.4445 18.752 26.7435 17.0564 25.4958 15.806C24.248 14.5558 22.5557 13.8535 20.791 13.8535C19.0264 13.8535 17.3341 14.5558 16.0863 15.806C14.8384 17.0564 14.1376 18.752 14.1376 20.52H20.791H27.4445Z" fill="white"/>
<path d="M59.0994 8.70508H55.755V27.3218H59.0994V8.70508Z" fill="white"/>
<path d="M61.2958 20.7325C61.2958 25.0409 64.2685 27.7006 68.1968 27.7006C72.1254 27.7006 75.0981 25.0409 75.0981 20.7325C75.0981 16.4241 72.1254 13.7646 68.1968 13.7646C64.2685 13.7646 61.2958 16.4241 61.2958 20.7325ZM64.6402 20.7325C64.6402 18.1794 66.1265 16.6901 68.1968 16.6901C70.2672 16.6901 71.7537 18.1794 71.7537 20.7325C71.7537 23.2858 70.2672 24.7751 68.1968 24.7751C66.1265 24.7751 64.6402 23.2858 64.6402 20.7325Z" fill="white"/>
<path d="M87.0471 14.137V15.9188H86.7817C85.9854 14.7752 84.7113 13.7646 82.4286 13.7646C79.2965 13.7646 76.4829 16.4241 76.4829 20.5199C76.4829 24.6155 79.2965 27.2751 82.4286 27.2751C84.7113 27.2751 85.9854 26.2377 86.7286 25.2007H86.9941V26.4771C86.9941 29.0303 85.5076 30.2006 83.3311 30.2006C81.1545 30.2006 80.0397 29.0303 79.5886 27.5144L76.5892 28.8177C77.2794 30.8122 79.2965 33.0196 83.3842 33.0196C87.5779 33.0196 90.3385 30.8122 90.3385 26.5568V14.137H87.0471ZM83.4372 24.4027C81.3669 24.4027 79.8274 22.9134 79.8274 20.5199C79.8274 18.1261 81.3669 16.6369 83.4372 16.6369C85.5076 16.6369 87.0471 18.1261 87.0471 20.5199C87.0471 22.9134 85.5076 24.4027 83.4372 24.4027Z" fill="white"/>
<path d="M92.4924 20.7325C92.4924 25.0409 95.4654 27.7006 99.3937 27.7006C103.322 27.7006 106.295 25.0409 106.295 20.7325C106.295 16.4241 103.322 13.7646 99.3937 13.7646C95.4654 13.7646 92.4924 16.4241 92.4924 20.7325ZM95.8369 20.7325C95.8369 18.1794 97.3233 16.6901 99.3937 16.6901C101.464 16.6901 102.951 18.1794 102.951 20.7325C102.951 23.2858 101.464 24.7751 99.3937 24.7751C97.3233 24.7751 95.8369 23.2858 95.8369 20.7325Z" fill="white"/>
<path d="M108.934 10.3068C108.934 11.6633 109.969 12.594 111.297 12.594C112.623 12.594 113.659 11.6633 113.659 10.3068C113.659 8.95045 112.623 8.01953 111.297 8.01953C109.969 8.01953 108.934 8.95045 108.934 10.3068ZM112.968 14.1366H109.625V27.3279H112.968V14.1366Z" fill="white"/>
<path d="M115.943 32.6472H119.288V25.6261H119.552C120.296 26.69 121.57 27.7006 123.853 27.7006C126.985 27.7006 129.799 25.0409 129.799 20.7325C129.799 16.4241 126.985 13.7646 123.853 13.7646C121.57 13.7646 120.296 14.7752 119.5 15.919H119.234V14.137H115.943V32.6472ZM122.844 24.8283C120.774 24.8283 119.234 23.3389 119.234 20.7325C119.234 18.1261 120.774 16.6369 122.844 16.6369C124.915 16.6369 126.454 18.1261 126.454 20.7325C126.454 23.3389 124.915 24.8283 122.844 24.8283Z" fill="white"/>
<path d="M131.747 17.8336C131.747 20.44 133.922 21.3976 136.683 21.9295L137.374 22.0624C139.018 22.3815 139.762 22.7805 139.762 23.6316C139.762 24.4826 139.018 25.1474 137.48 25.1474C135.94 25.1474 134.693 24.5092 134.347 22.5943L131.268 23.3921C131.72 26.158 134.028 27.7006 137.48 27.7006C140.823 27.7006 143.001 26.1314 143.001 23.3655C143.001 20.5996 140.771 19.855 137.798 19.2699L137.107 19.1369C135.727 18.8709 134.984 18.4985 134.984 17.621C134.984 16.8231 135.675 16.3178 136.949 16.3178C138.223 16.3178 139.125 16.8497 139.443 18.2859L142.47 17.355C141.833 15.2275 139.896 13.7646 136.949 13.7646C133.816 13.7646 131.747 15.2275 131.747 17.8336Z" fill="white"/>
<path d="M158.022 27.3279V14.1367H154.678V20.945C154.678 23.3918 153.484 24.828 151.439 24.828C149.634 24.828 148.626 23.8441 148.626 21.8493V14.1367H145.281V22.0089C145.281 25.2801 147.326 27.5407 150.405 27.5407C152.82 27.5407 153.935 26.4768 154.466 25.36H154.731V27.3279H158.022Z" fill="white"/>
<path d="M161.001 14.1335V27.3249H164.346V19.4527C164.346 17.6442 165.196 16.6336 166.735 16.6336C168.062 16.6336 168.857 17.3783 168.857 18.8143V27.3249H172.203V19.4527C172.203 17.6442 173.053 16.6336 174.591 16.6336C175.92 16.6336 176.715 17.3783 176.715 18.8143V27.3249H180.06V18.6547C180.06 15.4634 178.095 13.9209 175.654 13.9209C173.504 13.9209 172.521 14.8782 171.885 15.9953H171.619C171.007 14.7453 169.92 13.9209 168.009 13.9209C166.098 13.9209 165.062 14.7719 164.559 15.7825H164.292V14.1335H161.001Z" fill="white"/>
</svg>
