<svg width="191" height="44" viewBox="0 0 191 44" fill="none" xmlns="http://www.w3.org/2000/svg">
<path d="M36.9996 20.3857L18.0295 1.41562C17.8325 1.21853 17.5986 1.06218 17.3411 0.955511C17.0836 0.848843 16.8077 0.793945 16.529 0.793945C16.2503 0.793945 15.9743 0.848843 15.7168 0.955511C15.4594 1.06218 15.2254 1.21853 15.0284 1.41562L0.680398 15.5878C0.283286 15.9862 0.0603027 16.5258 0.0603027 17.0883C0.0603027 17.6509 0.283286 18.1904 0.680398 18.5889L4.78639 22.6949L21.7685 39.6388L36.9996 25.1646C37.6332 24.5308 37.9892 23.6713 37.9892 22.7752C37.9892 21.879 37.6332 21.0195 36.9996 20.3857Z" fill="#45BAFD"/>
<path d="M54.4405 17.2201L29.3191 42.3989C28.6853 43.0325 27.8258 43.3885 26.9296 43.3885C26.0335 43.3885 25.174 43.0325 24.5402 42.3989L10.326 28.1885C10.9598 28.8221 11.8193 29.1781 12.7154 29.1781C13.6116 29.1781 14.4711 28.8221 15.1049 28.1885L40.2263 3.00974C40.6247 2.61263 41.1643 2.38965 41.7269 2.38965C42.2894 2.38965 42.829 2.61263 43.2274 3.00974L54.4482 14.2305C54.8417 14.6289 55.0617 15.1668 55.0603 15.7269C55.0589 16.2869 54.8361 16.8237 54.4405 17.2201Z" fill="#5B46FF"/>
<path d="M24.3376 11.8683C24.9149 12.4455 25.4845 12.9693 25.9968 13.4204C26.1591 13.5581 26.2909 13.7281 26.3837 13.9195C26.4766 14.111 26.5284 14.3198 26.536 14.5324C26.5435 14.7451 26.5066 14.957 26.4276 15.1546C26.3486 15.3521 26.2292 15.5311 26.0771 15.6799L15.8963 25.8607C15.16 26.5966 14.1616 27.0099 13.1207 27.0099C12.0797 27.0099 11.0814 26.5966 10.3451 25.8607C9.60905 25.1238 9.19559 24.1248 9.19559 23.0832C9.19559 22.0417 9.60905 21.0427 10.3451 20.3058L20.526 10.1249C20.675 9.97367 20.8539 9.85511 21.0513 9.77678C21.2486 9.69846 21.4601 9.6621 21.6723 9.67001C21.8845 9.67792 22.0927 9.72993 22.2837 9.82273C22.4747 9.91553 22.6443 10.0471 22.7816 10.209C23.2327 10.7213 23.7603 11.2986 24.3376 11.8683Z" fill="#FFEE2B"/>
<path d="M78.9523 26.9108H92.2003V31.5908H72.4003V27.9908L85.2523 11.0708H73.1203V6.39082H91.4803V9.99082L78.9523 26.9108ZM99.7491 26.0108C99.7491 27.3068 101.261 27.9908 103.169 27.9908C105.257 27.9908 107.669 27.2708 107.669 24.3908V23.7788H103.889C101.045 23.7788 99.7491 24.5348 99.7491 26.0108ZM94.8171 26.1908C94.8171 21.3308 99.3171 20.3948 103.169 20.3948H107.669V19.7108C107.669 18.0188 106.553 16.8308 104.177 16.8308C102.233 16.8308 100.361 17.3348 98.9571 18.4148L96.3291 15.3908C98.3451 13.6268 100.361 12.5108 104.033 12.5108C109.181 12.5108 112.529 15.2468 112.529 19.7108V31.5908H107.669V29.6468C106.625 31.0868 104.825 31.9508 102.089 31.9508C97.4451 31.9508 94.8171 30.1148 94.8171 26.1908ZM115.556 7.21882C115.556 5.56282 116.888 4.23082 118.544 4.23082C120.2 4.23082 121.532 5.56282 121.532 7.21882C121.532 8.87482 120.2 10.2068 118.544 10.2068C116.888 10.2068 115.556 8.87482 115.556 7.21882ZM116.132 12.8708H120.992V31.5908H116.132V12.8708ZM138.088 20.1788C137.656 17.9468 136.396 16.8308 133.948 16.8308C131.5 16.8308 129.772 17.9468 129.16 20.1788H138.088ZM124.048 22.2308C124.048 16.5068 128.224 12.5108 133.948 12.5108C139.312 12.5108 143.128 16.5068 143.128 22.2308V23.6708H129.016C129.484 26.2988 131.284 27.6308 134.02 27.6308C136.324 27.6308 137.62 27.1628 139.312 25.3988L142.516 28.2788C140.752 30.6188 137.44 31.9508 133.948 31.9508C127.864 31.9508 124.048 27.9548 124.048 22.2308ZM160.236 22.2308C160.236 19.1348 158.184 17.0108 155.196 17.0108C152.208 17.0108 150.3 19.1348 150.3 22.2308C150.3 25.3268 152.208 27.4508 155.196 27.4508C158.184 27.4508 160.236 25.3268 160.236 22.2308ZM165.096 5.31082V31.5908H160.236V28.7468C159.156 30.7268 157.284 31.9508 154.116 31.9508C148.932 31.9508 145.476 27.9548 145.476 22.2308C145.476 16.5068 148.932 12.5108 154.116 12.5108C157.284 12.5108 159.156 13.7348 160.236 15.7148V5.31082H165.096ZM186.526 31.5908H181.666V29.5388C180.73 31.0508 179.182 31.9508 176.626 31.9508C172.342 31.9508 169.606 29.3948 169.606 24.7508V12.8708H174.466V23.6708C174.466 26.1908 175.186 27.4508 177.706 27.4508C180.154 27.4508 181.666 26.1908 181.666 22.9508V12.8708H186.526V31.5908Z" fill="white"/>
</svg>
