<svg xmlns="http://www.w3.org/2000/svg" width="66" height="22" viewBox="0 0 66 22" fill="none"><path d="m.125 21.09 2.825-.052 3.242-.049c1.253-.019 2.665-.041 4.206-.052l4.976-.045c1.766-.016 3.628-.037 5.555-.042l5.939-.024 6.132-.01 6.132.01 5.94.023c1.926.006 3.788.026 5.554.042l4.976.046c1.54.01 2.954.032 4.206.052l3.242.048 2.825.054-2.825.053-3.242.049c-1.252.02-2.665.041-4.206.052l-4.976.046c-1.766.016-3.628.035-5.554.041l-5.94.023-6.132.01-6.132-.01-5.94-.024c-1.926-.005-3.788-.026-5.554-.041l-4.976-.046a433.57 433.57 0 0 1-4.205-.052l-3.243-.048-2.825-.053Zm5.479-1.609 2.354-.042c1.499-.018 3.639-.06 6.207-.08l4.147-.037c1.471-.012 3.023-.03 4.629-.03l10.06-.03 10.059.029c1.605 0 3.157.017 4.628.03l4.147.037c1.284.008 2.461.026 3.505.042l2.702.039 2.354.042-2.354.043-2.702.039c-1.044.016-2.22.033-3.505.042-1.284.01-2.675.023-4.147.036-1.471.013-3.023.03-4.628.03l-10.06.03-10.06-.03c-1.605 0-3.156-.018-4.628-.03l-4.147-.037c-2.568-.02-4.708-.063-6.207-.08l-2.354-.043Zm5.479-1.921 1.884-.032c1.198-.013 2.91-.045 4.965-.06l3.318-.027c1.177-.01 2.418-.023 3.702-.023L33 17.396l8.047.021c2.569.006 4.966.037 7.02.05 2.055.015 3.768.048 4.966.061l1.884.032-1.884.032c-1.198.013-2.91.046-4.965.06-2.055.014-4.452.045-7.02.05L33 17.725l-8.048-.022c-1.284 0-2.525-.013-3.702-.023l-3.318-.027c-2.055-.015-3.767-.047-4.965-.06l-1.884-.032ZM34.447 1.394c4.33-1.11 9.087-2.484 10.795 0 1.709 2.485-2.246 8.156-5.666 9.454-3.421 1.298-9.15 4.166-10.243 3.005C28.24 12.69 26.415 6.778 27 5.313c.585-1.464 3.59-2.929 7.448-3.919Z" fill="#7A5A50"/><path d="M29.843 5.374s.143-.146.4-.395c.065-.061.132-.134.215-.203l.27-.224.31-.255c.112-.085.235-.168.36-.258.126-.089.256-.184.393-.278l.437-.272c.298-.193.627-.368.966-.552.169-.094.347-.175.524-.264.178-.087.356-.182.543-.259.371-.161.747-.328 1.131-.474.382-.152.772-.28 1.154-.413.19-.067.384-.121.574-.178.19-.056.377-.114.563-.161.187-.049.369-.1.549-.144.18-.043.358-.08.53-.118.342-.082.673-.132.976-.186.303-.05.584-.082.832-.112.25-.022.467-.038.646-.05.36-.008.563-.007.563-.007s-.201.042-.55.107l-.627.14-.804.204c-.293.084-.611.165-.944.267-.335.095-.683.21-1.045.322-.362.112-.73.25-1.107.375-.373.136-.755.268-1.129.421-.38.139-.75.297-1.117.45-.364.16-.723.314-1.066.474-.337.17-.675.315-.978.483l-.448.234c-.144.077-.28.158-.412.232l-.378.216-.33.208c-.209.131-.395.243-.538.35-.293.206-.463.32-.463.32Zm3.58-.384.456-.061.52-.07.673-.095.792-.12c.281-.043.576-.098.88-.148.306-.052.619-.117.937-.177.319-.06.64-.132.96-.206.321-.072.642-.146.954-.231.31-.088.62-.165.912-.26a13.372 13.372 0 0 0 1.574-.577c.222-.103.426-.2.599-.298.173-.098.32-.192.439-.275.114-.086.208-.153.265-.206l.09-.08-.07.098a2.444 2.444 0 0 1-.22.263 3.752 3.752 0 0 1-.397.359c-.161.13-.354.262-.572.395a7.37 7.37 0 0 1-.724.386 12.382 12.382 0 0 1-1.767.661c-.318.093-.644.176-.971.254-.33.07-.658.137-.984.193-.325.06-.649.097-.96.137a15.84 15.84 0 0 1-.903.082c-.287.022-.56.031-.81.036a12.54 12.54 0 0 1-.686 0c-.204-.003-.382-.014-.528-.022-.146-.006-.26-.021-.34-.027l-.119-.01Zm12.47 2.24s-.207-.1-.57-.271c-.183-.091-.402-.168-.655-.276-.064-.025-.128-.053-.196-.079l-.214-.072-.46-.156c-.162-.048-.333-.09-.509-.138l-.268-.07-.282-.053-.29-.055c-.097-.018-.196-.039-.297-.046l-.62-.066c-.421-.014-.86-.035-1.303.009l-.335.021-.333.051-.335.052-.168.026c-.056.012-.11.027-.166.04l-.66.163c-.216.066-.428.144-.64.215-.106.037-.214.07-.317.11l-.303.134c-.202.089-.403.172-.596.263-.19.1-.375.2-.557.297-.182.097-.362.188-.525.299l-.485.306c-.157.099-.31.193-.445.298l-.758.555c-.22.172-.404.333-.559.46l-.486.404.472-.42c.151-.133.33-.3.544-.48l.741-.582c.133-.11.283-.21.437-.315l.477-.325c.16-.117.34-.215.52-.319l.552-.32c.192-.098.393-.19.594-.287l.304-.145c.103-.046.211-.082.317-.124.214-.08.428-.166.646-.24l.67-.191c.056-.015.112-.033.168-.047l.171-.032.343-.065.341-.064.344-.035c.457-.06.91-.054 1.348-.055l.645.047c.105.004.208.021.31.037l.302.046.294.045.282.064c.184.043.363.081.533.125.168.05.328.1.481.145l.224.068c.072.024.141.051.208.076.267.101.51.18.691.264l.58.25-.207.457ZM26.225 2.387l.22.26c.07.083.155.181.25.303.095.12.207.253.32.403.11.152.237.31.359.488l.19.27.19.29c.13.194.251.405.378.616.12.214.243.432.354.656.058.11.112.223.163.336.052.113.108.223.154.337l.142.336.126.332c.083.218.153.432.22.635.061.204.122.396.169.577.05.179.092.344.126.49.036.147.066.275.088.381l.07.333-.091-.327a9.737 9.737 0 0 0-.112-.374 10.503 10.503 0 0 0-.156-.48c-.058-.176-.13-.363-.205-.561a13.969 13.969 0 0 0-.256-.614l-.145-.32-.16-.32c-.053-.11-.115-.214-.172-.322a6.145 6.145 0 0 0-.182-.32c-.122-.212-.255-.417-.386-.619-.137-.198-.267-.396-.408-.577l-.202-.27-.202-.252c-.13-.165-.263-.313-.38-.453-.12-.14-.235-.26-.334-.37-.097-.11-.19-.205-.265-.283l-.236-.245.373-.336Zm3.655 15.369-.049-.226c-.015-.073-.036-.157-.054-.262l-.063-.347-.058-.412c-.013-.147-.035-.3-.041-.463l-.013-.245v-.252c-.003-.084.004-.17.008-.255a5.859 5.859 0 0 1 .093-.764c.037-.165.072-.327.12-.48.041-.154.098-.298.146-.435.055-.135.104-.263.159-.378.05-.116.1-.22.148-.312.046-.091.086-.171.122-.236l.11-.203-.09.213c-.03.067-.063.15-.1.245a5.543 5.543 0 0 0-.117.322c-.044.118-.08.248-.121.386-.035.138-.077.283-.103.436-.033.152-.052.312-.072.472a5.609 5.609 0 0 0-.025.49c-.003.082.001.164.005.246.003.082.004.163.014.243l.023.239.034.232c.02.152.055.298.08.436l.092.388.09.322c.026.095.057.182.078.252l.069.22-.485.128Z" fill="#fff"/><path d="M16.673 12.486c.669 5.38 4.899 8.768 9.643 7.526 4.744-1.24 3.796-7.728 3.504-9.77-.293-2.042-2.936-10.565-8.97-7.167-5.18 2.918-4.494 6.865-4.177 9.411Z" fill="#7A5A50"/><path d="m26.595 17.978-.16.114a2.08 2.08 0 0 1-.522.248 1.866 1.866 0 0 1-.981.027c-.392-.094-.812-.338-1.146-.674-.344-.334-.622-.742-.858-1.18a8.739 8.739 0 0 1-.591-1.398c-.327-.975-.53-2.012-.683-3.034a52.845 52.845 0 0 1-.326-2.952 75.51 75.51 0 0 0-.128-1.314c-.046-.41-.1-.788-.17-1.124a3.888 3.888 0 0 0-.265-.86 1.484 1.484 0 0 0-.399-.543 1.529 1.529 0 0 0-.229-.153 3.127 3.127 0 0 0-.2-.089l-.184-.059s.06-.029.184-.077c.124-.036.322-.094.59-.063.268.023.605.144.91.377.307.23.592.55.833.915.241.367.45.78.633 1.22.182.44.335.907.47 1.39.269.964.449 1.987.597 2.992.146 1.005.258 1.995.382 2.887.127.89.27 1.693.513 2.254.118.286.263.498.437.665.175.165.393.263.593.325.205.052.374.081.504.09l.195.016Z" fill="#fff"/><path d="m25.352 18.043-.13-.029a1.189 1.189 0 0 1-.357-.141c-.066-.05-.15-.095-.224-.164-.072-.07-.158-.142-.227-.236l-.113-.141-.104-.16c-.076-.108-.13-.234-.198-.36a6.187 6.187 0 0 1-.331-.854 10.82 10.82 0 0 1-.26-.982c-.07-.344-.144-.699-.199-1.062-.058-.362-.11-.73-.162-1.098l-.266-2.16c-.046-.342-.09-.673-.137-.986-.052-.312-.1-.607-.156-.876a8.046 8.046 0 0 0-.087-.385 4.64 4.64 0 0 0-.091-.344 3.98 3.98 0 0 0-.096-.298c-.033-.09-.058-.177-.093-.25l-.085-.197c-.028-.056-.055-.102-.075-.14l-.064-.118.083.105c.026.035.061.076.099.128l.116.185c.047.07.084.152.13.24.05.087.09.185.135.291.092.21.18.454.26.723.084.27.16.564.23.878.07.314.138.645.195.99.056.345.118.7.166 1.063l.15 1.096a57.811 57.811 0 0 0 .308 2.144c.065.338.121.666.198.97.073.305.16.587.251.843.053.124.096.248.154.356l.08.161.09.143c.116.187.25.324.37.427.125.09.231.162.316.188l.124.05Z" fill="#7A5A50"/><path d="m24.09 3.023.136.054c.09.033.217.096.373.188.153.095.336.218.524.386.195.161.393.366.599.598.199.237.411.499.604.797.198.294.395.613.572.956.18.342.355.701.508 1.076.156.375.295.762.425 1.152.12.394.232.79.32 1.185a13.424 13.424 0 0 1 .343 2.788c.003.166 0 .326-.005.48a8.423 8.423 0 0 1-.057.837c-.023.248-.062.463-.092.639-.027.176-.067.312-.085.405a91.45 91.45 0 0 1-.033.143l.006-.147c.002-.095.011-.234.013-.412a15.257 15.257 0 0 0-.015-1.027c-.006-.138-.011-.282-.025-.432a8.736 8.736 0 0 0-.042-.467 11.167 11.167 0 0 0-.057-.498c-.041-.342-.106-.7-.17-1.068a21.63 21.63 0 0 0-.252-1.128 16.952 16.952 0 0 0-.327-1.145 16.62 16.62 0 0 0-.396-1.124c-.147-.364-.29-.723-.453-1.06a14.14 14.14 0 0 0-.495-.956 11.578 11.578 0 0 0-.513-.817 7.401 7.401 0 0 0-.506-.639 4.727 4.727 0 0 0-.45-.442c-.135-.108-.243-.196-.326-.244l-.123-.078Zm-6.497 4.683s-.011.153-.04.42c-.012.132-.013.294-.026.475-.007.183-.003.392-.01.616l.011.352c.003.121.004.246.014.375l.022.396.035.413c.015.28.067.567.093.86.046.292.077.59.139.882.026.147.049.295.077.442l.094.434c.064.287.136.567.205.838.04.134.083.265.118.395l.055.193.065.184.122.354c.038.115.086.221.127.326l.12.3.124.264c.078.166.142.315.212.427.128.232.199.37.199.37s-.105-.11-.282-.314a3.282 3.282 0 0 1-.295-.386l-.172-.247-.166-.288c-.056-.102-.12-.206-.175-.318-.053-.113-.108-.23-.163-.351-.12-.24-.208-.506-.31-.778-.048-.137-.088-.278-.134-.42a4.49 4.49 0 0 1-.121-.437l-.106-.447c-.032-.15-.059-.303-.088-.454-.058-.304-.085-.612-.126-.913a15.153 15.153 0 0 1-.052-.89c-.002-.146-.01-.288-.006-.427l.016-.408c.004-.265.042-.515.062-.744.034-.23.067-.438.106-.623.043-.185.08-.345.119-.473.083-.254.137-.398.137-.398Zm12.287 10.05-.049-.226c-.015-.073-.036-.157-.054-.262l-.063-.347-.058-.412c-.013-.147-.035-.3-.041-.463l-.013-.245v-.252c-.003-.084.004-.17.008-.255a5.859 5.859 0 0 1 .093-.764c.037-.165.072-.327.12-.48.041-.154.098-.298.146-.435.055-.135.104-.263.159-.378.05-.116.1-.22.148-.312.046-.091.086-.171.122-.236l.11-.203-.09.213c-.03.067-.063.15-.1.245a5.543 5.543 0 0 0-.117.322c-.044.118-.08.248-.121.386-.035.138-.077.283-.103.436-.033.152-.052.312-.072.472a5.609 5.609 0 0 0-.025.49c-.003.082.001.164.005.246.003.082.004.163.014.243l.023.239.034.232c.02.152.055.298.08.436l.092.388.09.322c.026.095.057.182.078.252l.069.22-.485.128Z" fill="#fff"/><path d="M36.975 7.05c-4.081 2.103-8.678 5.523-6.628 10.374 2.05 4.85 7.038 5.407 11.752 3.694 4.715-1.713 8.815-6.647 6.628-10.876-2.186-4.229-7.93-5.161-11.752-3.192Z" fill="#7A5A50"/><path d="M30.59 17.111s.08.03.226.089c.149.06.351.118.608.17.257.043.558.054.877.003.318-.049.66-.168 1.02-.339.72-.342 1.526-.92 2.388-1.603.862-.684 1.786-1.466 2.743-2.246.96-.778 1.955-1.556 2.963-2.228 1.01-.672 2.026-1.249 3.014-1.608.493-.178.973-.308 1.433-.347.456-.042.887.004 1.205.153.158.07.286.157.379.246.045.046.089.082.12.126l.083.115c.047.067.067.13.086.166l.026.056-.058-.024c-.04-.014-.092-.04-.163-.061a1.148 1.148 0 0 0-.575-.027c-.227.044-.479.171-.754.36a7.974 7.974 0 0 0-.9.742c-.645.597-1.383 1.369-2.213 2.181a38.774 38.774 0 0 1-2.749 2.487c-1 .807-2.074 1.57-3.207 2.158a10.77 10.77 0 0 1-1.727.729 6.553 6.553 0 0 1-1.737.325c-.564.022-1.101-.048-1.543-.216a2.822 2.822 0 0 1-1.001-.62 2.532 2.532 0 0 1-.435-.57c-.072-.14-.108-.217-.108-.217Z" fill="#fff"/><path d="m31.624 17.86.165.039c.053.01.119.033.197.041l.267.026c.1.003.212-.005.331-.007.12-.013.25-.03.386-.053l.209-.05c.035-.01.071-.018.108-.027l.11-.038.226-.076.233-.095c.315-.132.644-.31.982-.511.34-.2.681-.444 1.036-.691a41.07 41.07 0 0 0 2.136-1.694l1.071-.892c.352-.297.707-.58 1.049-.857.34-.277.68-.535 1.003-.777.323-.243.637-.462.93-.659l.426-.276.393-.234c.25-.142.47-.26.658-.348.183-.094.335-.15.437-.193l.156-.065-.144.089a9.35 9.35 0 0 0-.4.256c-.171.11-.371.257-.602.422-.227.169-.48.365-.753.582-.271.22-.562.461-.867.72l-.954.823c-.332.285-.667.59-1.018.887-.35.3-.704.606-1.064.907a44.05 44.05 0 0 1-1.097.876 20.36 20.36 0 0 1-1.11.796c-.37.243-.738.468-1.104.654-.179.098-.363.178-.538.258-.182.069-.352.146-.526.195-.339.122-.67.174-.96.207a5.016 5.016 0 0 1-.41.009c-.126-.015-.241-.022-.345-.04l-.271-.067c-.078-.021-.138-.053-.19-.072l-.156-.064Z" fill="#7A5A50"/><path d="m35.195 20.91.591.062c.189.002.414.011.672.012a1190.936 1190.936 0 0 1 .636-.028l.233-.025.495-.052.525-.085c.09-.015.181-.027.273-.045l.278-.061c.186-.045.379-.075.571-.126l.585-.157c.099-.026.197-.054.295-.089l.297-.095c.4-.116.791-.28 1.187-.43.197-.08.388-.17.582-.253l.289-.127c.094-.045.186-.096.279-.143.184-.097.368-.191.551-.282.178-.1.35-.205.522-.305.348-.193.658-.42.963-.621.156-.097.29-.212.427-.316l.395-.303c.131-.093.237-.204.348-.299l.31-.274c.202-.168.353-.337.486-.47.263-.27.419-.421.419-.421s-.122.177-.343.485c-.113.152-.24.348-.423.539-.179.194-.366.43-.605.654l-.373.348c-.13.12-.263.245-.415.356-.298.226-.601.486-.954.696-.172.11-.346.227-.526.337-.184.104-.371.206-.562.307-.095.05-.189.104-.286.152l-.297.135c-.199.09-.395.186-.598.27-.41.149-.817.313-1.232.427-.409.137-.826.217-1.225.31-.2.042-.4.07-.595.1l-.29.044c-.095.012-.19.018-.284.027l-.544.047-.512.007-.24.002-.229-.014-.422-.03c-.266-.031-.495-.077-.682-.107-.183-.045-.325-.09-.423-.116l-.149-.043Zm-3.905-7.646.066-.145a4.09 4.09 0 0 1 .21-.4c.1-.166.226-.367.39-.584.16-.22.35-.46.575-.708.109-.127.23-.251.353-.384.127-.128.257-.261.397-.391.277-.266.58-.533.905-.797.328-.258.666-.528 1.032-.771.363-.249.74-.488 1.127-.712.386-.223.788-.422 1.184-.613.4-.184.802-.347 1.2-.483a11.09 11.09 0 0 1 1.161-.34c.19-.038.371-.083.55-.111.18-.025.351-.059.519-.073.333-.04.641-.052.913-.053l.38.01.322.028c.194.012.344.051.446.065l.157.027h-.16c-.103.003-.254-.006-.446.008l-.317.016-.37.038c-.264.033-.56.08-.88.145a14.21 14.21 0 0 0-1.017.262c-.355.113-.726.24-1.104.392-.38.143-.758.329-1.146.507-.382.19-.769.388-1.143.61-.378.213-.749.441-1.105.678a24.15 24.15 0 0 0-1.033.719c-.324.248-.64.485-.926.726-.288.24-.555.473-.794.697-.12.112-.232.22-.337.326-.108.104-.205.207-.297.304-.181.194-.334.37-.454.519-.117.15-.212.269-.268.357l-.09.13Z" fill="#fff"/></svg>