<svg xmlns="http://www.w3.org/2000/svg" width="90" height="90" viewBox="0 0 90 90" fill="none"><path d="M84.785 28.182a41.509 41.509 0 0 1 1.732 11.872c0 22.928-18.586 41.514-41.514 41.514-22.928 0-41.515-18.586-41.515-41.514 0-4.126.61-8.11 1.732-11.872a42.863 42.863 0 0 0-3.215 16.32c0 23.746 19.251 42.997 42.998 42.997C68.749 87.5 88 68.25 88 44.502a42.864 42.864 0 0 0-3.215-16.32Z" fill="#F8F8F8"/><path d="M70.69 29.675c-2.865-4.95-2.94-13.129-7.89-15.993-4.8-2.776-11.855 1.167-17.798 1.167-5.942 0-12.998-3.943-17.796-1.167-4.95 2.864-5.026 11.043-7.89 15.993-2.776 4.798-9.898 8.884-9.898 14.827 0 5.942 7.122 10.029 9.897 14.827 2.865 4.95 2.94 13.129 7.89 15.993 4.799 2.776 11.855-1.167 17.797-1.167 5.943 0 12.999 3.943 17.797 1.167 4.95-2.864 5.026-11.043 7.89-15.993 2.776-4.798 9.897-8.885 9.897-14.827 0-5.943-7.12-10.029-9.896-14.827ZM45.002 59.33c-8.188 0-14.826-6.638-14.826-14.827s6.638-14.827 14.826-14.827c8.19 0 14.827 6.638 14.827 14.827S53.191 59.33 45.002 59.33Z" fill="#BE8A60"/><path d="M45.003 35.606c7.173 0 13.154 5.094 14.529 11.861.194-.958.298-1.95.298-2.965 0-8.19-6.638-14.827-14.827-14.827s-14.827 6.638-14.827 14.827c0 1.015.104 2.007.298 2.965 1.373-6.767 7.356-11.861 14.529-11.861Z" fill="#F8F8F8"/><path d="M45.054 89.004a44.602 44.602 0 0 1-13.493-2.101C20.235 83.313 10.985 75.526 5.517 64.98.046 54.433-.99 42.387 2.602 31.061c3.59-11.326 11.376-20.576 21.923-26.044C35.069-.454 47.119-1.49 58.444 2.102a1.482 1.482 0 0 1 .965 1.86 1.473 1.473 0 0 1-1.861.966c-10.577-3.352-21.817-2.386-31.66 2.72-9.844 5.105-17.11 13.739-20.462 24.309-3.35 10.571-2.384 21.814 2.721 31.66 5.105 9.844 13.739 17.11 24.308 20.462 10.576 3.349 21.816 2.384 31.66-2.721 9.845-5.105 17.111-13.739 20.462-24.309 5.776-18.223-1.55-37.927-17.82-47.915a1.483 1.483 0 1 1 1.552-2.528C85.741 17.31 93.593 38.421 87.403 57.945 83.813 69.271 76.026 78.522 65.48 83.99c-6.42 3.328-13.397 5.014-20.426 5.014Z" fill="#252627"/><path d="M44.993 60.812a16.2 16.2 0 0 1-4.917-.765 16.2 16.2 0 0 1-9.55-8.037 16.206 16.206 0 0 1-1.069-12.437C32.175 31 41.36 26.235 49.933 28.954a1.482 1.482 0 0 1 .965 1.861 1.476 1.476 0 0 1-1.861.965 13.237 13.237 0 0 0-10.175.875 13.253 13.253 0 0 0-6.576 7.814 13.25 13.25 0 0 0 .875 10.175 13.264 13.264 0 0 0 7.813 6.577 13.259 13.259 0 0 0 10.176-.874 13.253 13.253 0 0 0 6.575-7.814 13.24 13.24 0 0 0-.972-10.362 1.482 1.482 0 1 1 2.612-1.405 16.18 16.18 0 0 1 1.188 12.664c-2.202 6.939-8.64 11.382-15.56 11.382Z" fill="#252627"/></svg>