<svg xmlns="http://www.w3.org/2000/svg" width="80" height="89" viewBox="0 0 80 89" fill="none"><path d="M53.333 35.556v17.778c0 12.647-9.333 23.087-21.481 24.882 1.211.18 2.441.303 3.703.303 13.91 0 25.185-11.276 25.185-25.185V38.519a2.962 2.962 0 0 0-2.963-2.963h-4.444Z" fill="#F8F8F8"/><path d="M53.522 70.966c-4.569 4.657-10.927 7.552-17.967 7.552-7.04 0-13.398-2.895-17.967-7.552C7.919 72.535 1.48 75.33 1.48 78.518c0 4.91 15.255 8.889 34.074 8.889 18.82 0 34.074-3.98 34.074-8.889 0-3.188-6.439-5.984-16.107-7.552Z" fill="#F8F8F8"/><path d="M26.667 35.556h-8.889v10.37a2.962 2.962 0 1 0 5.926 0v-4.444a1.482 1.482 0 0 1 2.963 0 2.962 2.962 0 1 0 5.926 0v-5.926h-5.926Z" fill="#BE8A60"/><path d="M35.555 80C20.852 80 8.89 68.037 8.89 53.333V38.518a4.45 4.45 0 0 1 4.444-4.444h31.111a1.482 1.482 0 0 1 0 2.963h-31.11c-.817 0-1.482.665-1.482 1.481v14.815c0 13.07 10.634 23.704 23.703 23.704 13.07 0 23.704-10.634 23.704-23.704V38.518c0-.816-.665-1.481-1.482-1.481h-4.446a1.482 1.482 0 0 1 0-2.963h4.446a4.45 4.45 0 0 1 4.445 4.444v14.815C62.222 68.037 50.259 80 35.555 80Zm.001-48.889a1.482 1.482 0 0 1-1.482-1.481A5.932 5.932 0 0 1 40 23.704h4.444a2.966 2.966 0 0 0 2.963-2.963 2.966 2.966 0 0 0-2.963-2.963h-20.74a5.932 5.932 0 0 1-5.926-5.926 5.932 5.932 0 0 1 5.926-5.926h7.407a2.966 2.966 0 0 0 2.963-2.963V1.481a1.482 1.482 0 0 1 2.963 0v1.482a5.932 5.932 0 0 1-5.926 5.926h-7.407a2.966 2.966 0 0 0-2.963 2.963 2.966 2.966 0 0 0 2.963 2.963h20.74a5.932 5.932 0 0 1 5.926 5.926 5.932 5.932 0 0 1-5.926 5.926H40a2.966 2.966 0 0 0-2.963 2.963c0 .817-.664 1.481-1.481 1.481Z" fill="#252627"/><path d="M35.556 88.889C17.887 88.889 0 85.327 0 78.519c0-2.776 2.836-5.112 8.428-6.943a1.477 1.477 0 0 1 1.868.947 1.48 1.48 0 0 1-.946 1.868c-4.714 1.545-6.387 3.19-6.387 4.127 0 3.021 12.696 7.408 32.593 7.408 19.896 0 32.592-4.387 32.592-7.408 0-.938-1.671-2.58-6.382-4.124a1.482 1.482 0 1 1 .923-2.817c5.59 1.832 8.422 4.168 8.422 6.941 0 6.81-17.887 10.37-35.556 10.37ZM69.63 57.777h-2.963a1.482 1.482 0 0 1 0-2.963h2.962c4.085 0 7.408-3.323 7.408-7.407S73.714 40 69.629 40h-2.963a1.482 1.482 0 0 1 0-2.963h2.963c5.719 0 10.37 4.651 10.37 10.37 0 5.719-4.651 10.37-10.37 10.37Z" fill="#252627"/><path d="M69.63 51.852h-2.963a1.482 1.482 0 0 1 0-2.963h2.962c.817 0 1.482-.665 1.482-1.481 0-.817-.665-1.482-1.482-1.482h-2.963a1.482 1.482 0 0 1 0-2.963h2.963a4.45 4.45 0 0 1 4.445 4.445 4.45 4.45 0 0 1-4.445 4.444Z" fill="#252627"/></svg>