<svg xmlns="http://www.w3.org/2000/svg" width="90" height="90" viewBox="0 0 90 90" fill="none"><path d="M25.706 58.595c0 .09.006.177.006.266 9.026 1.639 18.678-1.017 25.655-7.994 6.976-6.976 9.617-16.622 7.98-25.646-.088 0-.174-.006-.26-.006-18.435 0-33.38 14.944-33.38 33.38Z" fill="#F8F8F8"/><path d="M59.087 89.01c16.797 0 30.413-13.617 30.413-30.414S75.884 28.182 59.087 28.182 28.673 41.8 28.673 58.596 42.29 89.009 59.087 89.009Z" fill="#BE8A60"/><path d="M76.147 65.271a1.484 1.484 0 1 0 0-2.967 1.484 1.484 0 0 0 0 2.967ZM43.509 23.73a1.484 1.484 0 1 0 0-2.966 1.484 1.484 0 0 0 0 2.967ZM72.44 47.468a2.225 2.225 0 1 0 0-4.45 2.225 2.225 0 0 0 0 4.45Zm-28.19 0a2.225 2.225 0 1 0 0-4.45 2.225 2.225 0 0 0 0 4.45Zm-23.736 1.484a2.225 2.225 0 1 0 0-4.45 2.225 2.225 0 0 0 0 4.45Zm40.057 29.671a3.709 3.709 0 1 0 0-7.418 3.709 3.709 0 0 0 0 7.418Zm-35.606-62.31a3.709 3.709 0 1 0 0-7.418 3.709 3.709 0 0 0 0 7.418ZM60.571 60.82a3.709 3.709 0 1 0 0-7.418 3.709 3.709 0 0 0 0 7.419ZM30.898 31.149a3.709 3.709 0 1 0 0-7.418 3.709 3.709 0 0 0 0 7.418Zm14.837 37.09a2.225 2.225 0 1 0 0-4.451 2.225 2.225 0 0 0 0 4.45ZM13.096 29.665a2.225 2.225 0 1 0 0-4.45 2.225 2.225 0 0 0 0 4.45Z" fill="#252627"/><path d="M30.906 60.812c-7.79.001-15.579-2.964-21.51-8.896-11.861-11.861-11.861-31.16 0-43.02a30.158 30.158 0 0 1 9.937-6.626 1.478 1.478 0 0 1 1.934.81 1.48 1.48 0 0 1-.81 1.934 27.218 27.218 0 0 0-8.963 5.98C.79 21.696.79 39.113 11.494 49.818c10.704 10.703 28.12 10.703 38.825 0 6.3-6.298 9.117-15.173 7.65-23.937a8.925 8.925 0 0 1-7.665-7.455 8.927 8.927 0 0 1-7.42-7.419 8.924 8.924 0 0 1-7.454-7.666 27.713 27.713 0 0 0-6.412-.311 1.495 1.495 0 0 1-1.58-1.381 1.485 1.485 0 0 1 1.38-1.58c2.79-.189 5.598.006 8.342.58a1.483 1.483 0 0 1 1.167 1.635 5.943 5.943 0 0 0 5.938 5.861c.82 0 1.483.663 1.483 1.484a5.943 5.943 0 0 0 5.936 5.936c.82 0 1.483.663 1.483 1.483 0 3.25 2.626 5.9 5.866 5.937a1.48 1.48 0 0 1 1.63 1.168c2.116 10.108-.966 20.487-8.246 27.762-5.93 5.93-13.722 8.896-21.51 8.896Z" fill="#252627"/></svg>