<svg xmlns="http://www.w3.org/2000/svg" width="91" height="90" viewBox="0 0 91 90" fill="none"><path d="M4.35342 69L3.81042 73.5H8.66143C9.56143 73.5 10.259 74.286 10.151 75.18L8.54296 88.5H12.5L14.8534 69H4.35342Z" fill="#F8F8F8"/><path d="M59.8533 69L59.3103 73.5H64.1613C65.0613 73.5 65.7589 74.286 65.6509 75.18L64.0428 88.5H67.9998L70.3533 69H59.8533Z" fill="#F8F8F8"/><path d="M71.957 1.5L64.6715 61.8599C64.49 63.3674 63.2104 64.4999 61.6924 64.4999H4.89505L4.35205 68.9999H70.352L78.4999 1.5H71.957Z" fill="#F8F8F8"/><path d="M78.5 1.5L71 68.9999H86.6465L78.5 1.5Z" fill="#F8F8F8"/><path d="M31.2441 35.2457C26.5866 30.5837 26.5897 23.0282 31.2532 18.3707L36.8812 12.7487C41.5432 8.09118 49.0987 8.0942 53.7562 12.7577C58.4137 17.4197 58.4106 24.9752 53.7471 29.6342L48.1191 35.2561C43.4586 39.9121 35.9031 39.9077 31.2441 35.2457Z" fill="#BE8A60"/><path d="M35.4651 32.5274C34.7631 32.5274 34.1376 32.0339 33.9966 31.3199C33.8346 30.5069 34.3611 29.7179 35.1741 29.5559L36.6906 29.2544C39.1866 28.7564 41.0001 26.5454 41.0031 23.9984C41.0046 20.0279 43.8335 16.581 47.7275 15.8025L49.244 15.501C50.063 15.3285 50.846 15.8669 51.008 16.6784C51.17 17.4914 50.6436 18.2805 49.8306 18.4425L48.314 18.7439C45.818 19.2434 44.0046 21.4544 44.0031 23.9999C44.0001 27.9719 41.1711 31.4189 37.2771 32.1959L35.7606 32.4974C35.6601 32.5199 35.5611 32.5274 35.4651 32.5274Z" fill="#252627"/><path d="M70.3535 70.4999H4.35365C3.92465 70.4999 3.51517 70.3169 3.23167 69.9944C2.94667 69.6734 2.81318 69.2459 2.86418 68.8199L11.0107 1.32001C11.1022 0.567007 11.7412 0 12.5002 0H63.5001C64.3296 0 65.0001 0.670499 65.0001 1.5C65.0001 2.3295 64.3296 3 63.5001 3H13.8307L6.04719 67.4999H69.0246L76.8096 3H72.5001C71.6706 3 71.0001 2.3295 71.0001 1.5C71.0001 0.670499 71.6706 0 72.5001 0H78.5001C78.9291 0 79.3386 0.183008 79.6221 0.505508C79.9071 0.826507 80.0406 1.25399 79.9895 1.67999L71.8431 69.1799C71.7531 69.9329 71.1125 70.4999 70.3535 70.4999Z" fill="#252627"/><path d="M12.5001 90H2.00009C1.57109 90 1.16161 89.817 0.878109 89.4945C0.591609 89.1735 0.459617 88.746 0.510617 88.32L1.41662 80.82C1.51562 79.9965 2.25658 79.41 3.08608 79.5105C3.90808 79.6095 4.49456 80.3565 4.39556 81.18L3.69207 87H11.1695L13.1615 70.5H5.68407L5.3001 73.68C5.2011 74.5035 4.45404 75.09 3.63055 74.9895C2.80855 74.8905 2.22207 74.1435 2.32107 73.32L2.86407 68.82C2.95407 68.067 3.59454 67.5 4.35354 67.5H14.8535C15.2825 67.5 15.6921 67.683 15.9756 68.0055C16.2606 68.3265 16.3941 68.754 16.3431 69.18L13.9895 88.68C13.8995 89.433 13.2591 90 12.5001 90Z" fill="#252627"/><path d="M67.9999 90H57.5C57.071 90 56.6615 89.817 56.378 89.4945C56.0915 89.1735 55.9595 88.746 56.0105 88.32L58.3639 68.82C58.4539 68.067 59.0944 67.5 59.8534 67.5H70.3534C70.7824 67.5 71.192 67.683 71.4755 68.0055C71.7605 68.3265 71.894 68.754 71.843 69.18L69.4894 88.68C69.3994 89.433 68.7589 90 67.9999 90ZM59.1919 87H66.6694L68.6614 70.5H61.1839L59.1919 87Z" fill="#252627"/><path d="M86.6465 70.5H71C70.1705 70.5 69.5 69.8296 69.5 69.0001C69.5 68.1706 70.1705 67.5001 71 67.5001H84.9544L77.0105 1.68014C76.913 0.856645 77.498 0.109637 78.32 0.0106367C79.1555 -0.0868631 79.8905 0.496661 79.9895 1.32016L88.136 68.8201C88.187 69.2461 88.0535 69.6735 87.7685 69.9945C87.4835 70.317 87.0755 70.5 86.6465 70.5Z" fill="#252627"/><path d="M78.4999 88.5H88.9999L86.6465 69H76.1465L78.4999 88.5Z" fill="#F8F8F8"/><path d="M23.0001 88.5H33.5L31.1466 69H20.6466L23.0001 88.5Z" fill="#F8F8F8"/><path d="M89 90H78.5C77.741 90 77.1006 89.433 77.0106 88.68L74.657 69.18C74.606 68.754 74.7395 68.3265 75.0245 68.0055C75.3095 67.683 75.7176 67.5 76.1466 67.5H86.6466C87.4056 67.5 88.046 68.067 88.136 68.82L90.4895 88.32C90.5405 88.746 90.407 89.1735 90.122 89.4945C89.8385 89.817 89.429 90 89 90ZM79.8306 87H87.308L85.316 70.5H77.8386L79.8306 87Z" fill="#252627"/><path d="M33.5 90H23C22.241 90 21.6006 89.433 21.5106 88.68L19.157 69.18C19.106 68.754 19.2395 68.3265 19.5245 68.0055C19.8095 67.683 20.2176 67.5 20.6466 67.5H31.1466C31.9056 67.5 32.546 68.067 32.636 68.82L34.9895 88.32C35.0405 88.746 34.907 89.1735 34.622 89.4945C34.3385 89.817 33.929 90 33.5 90ZM24.3306 87H31.808L29.816 70.5H22.3386L24.3306 87Z" fill="#252627"/><path d="M60.4999 49.5H20C19.1705 49.5 18.5 48.8295 18.5 48C18.5 47.1705 19.1705 46.5 20 46.5H60.4999C61.3294 46.5 61.9999 47.1705 61.9999 48C61.9999 48.8295 61.3294 49.5 60.4999 49.5Z" fill="#252627"/><path d="M58.9999 58.5H18.5C17.6705 58.5 17 57.8295 17 57C17 56.1705 17.6705 55.5 18.5 55.5H58.9999C59.8294 55.5 60.4999 56.1705 60.4999 57C60.4999 57.8295 59.8294 58.5 58.9999 58.5Z" fill="#252627"/></svg>