<svg xmlns="http://www.w3.org/2000/svg" width="77" height="90" viewBox="0 0 77 90" fill="none"><path d="M53.0147 37.4062C52.2579 52.984 45.9314 68.3436 34.0338 80.2397C33.7765 80.4985 33.5056 80.7362 33.2454 80.9905L36.3733 84.2538L70.9771 48.1455C65.609 43.4424 59.6436 39.7428 53.0147 37.4062Z" fill="#F8F8F8"/><path d="M36.3732 85.7586C35.9624 85.7586 35.5713 85.5916 35.2869 85.2952L0.683111 49.1868C0.398758 48.8905 0.248294 48.4903 0.266349 48.081C0.284403 47.6703 0.469452 47.2851 0.777878 47.0158C11.317 37.7811 23.2929 33.1006 36.3732 33.1006C49.4534 33.1006 61.4293 37.7811 71.9684 47.0143C72.2769 47.2851 72.4619 47.6703 72.48 48.0795C72.498 48.4902 72.3476 48.8889 72.0632 49.1853L67.5497 53.8945C66.9734 54.4948 66.0226 54.5143 65.4223 53.9396C64.8235 53.3649 64.8024 52.4125 65.3787 51.8122L68.7909 48.2525C59.1094 40.1944 48.2122 36.1096 36.3732 36.1096C24.5341 36.1096 13.637 40.1944 3.95692 48.2541L36.3732 82.08L59.3591 58.0951C59.9354 57.4948 60.8877 57.4752 61.4865 58.0499C62.0853 58.6246 62.1064 59.577 61.5301 60.1773L37.4579 85.2967C37.1751 85.5915 36.7824 85.7586 36.3732 85.7586Z" fill="#252627"/><path d="M40.6294 90.0002C40.2307 90.0002 39.8471 89.8422 39.5657 89.5593L35.3109 85.3031C34.7227 84.7148 34.7227 83.7625 35.3109 83.1757C35.8992 82.5874 36.8501 82.5874 37.4383 83.1757L40.6053 86.3442L73.1254 52.4024L69.9117 49.1872C69.3235 48.599 69.3235 47.6466 69.9117 47.0599C70.5 46.4716 71.4509 46.4716 72.0391 47.0599L76.2939 51.3161C76.8731 51.8953 76.8837 52.8297 76.3165 53.4209L41.7141 89.5353C41.4343 89.8271 41.0491 89.9941 40.6444 89.9987C40.6399 90.0002 40.6354 90.0002 40.6294 90.0002Z" fill="#252627"/><path d="M15.3912 22.1178C11.0536 19.6595 9.53111 14.1499 11.991 9.81242L14.9594 4.57672C17.4178 0.239211 22.9273 -1.28335 27.2648 1.17653C31.6023 3.63491 33.1249 9.14443 30.665 13.4819L27.6966 18.7176C25.2382 23.0552 19.7287 24.5777 15.3912 22.1178Z" fill="#BE8A60"/><path d="M17.6193 19.6954C17.0687 19.6954 16.5391 19.393 16.2743 18.8679C15.8996 18.1262 16.1976 17.222 16.9393 16.8474L17.9819 16.3208C19.5466 15.5324 20.3425 13.7346 19.8761 12.048C19.029 8.9818 20.4734 5.71852 23.3154 4.28622L24.3565 3.75963C25.0982 3.382 26.004 3.6814 26.3786 4.42463C26.7532 5.16635 26.4553 6.07057 25.7151 6.44519L24.6725 6.97176C23.1063 7.76012 22.3104 9.55803 22.7768 11.2446C23.6238 14.3108 22.178 17.5741 19.3375 19.0079L18.2949 19.5345C18.0782 19.6443 17.8465 19.6954 17.6193 19.6954Z" fill="#252627"/><path d="M55.4188 30.9115C50.7172 32.568 45.5612 30.1006 43.9048 25.3975L41.9053 19.7209C40.2488 15.0193 42.7162 9.86336 47.4193 8.20689C52.1209 6.55042 57.2769 9.01784 58.9333 13.7209L60.9328 19.3975C62.5893 24.1006 60.1204 29.255 55.4188 30.9115Z" fill="#BE8A60"/><path d="M53.9203 28.1602C53.797 28.1602 53.6721 28.1452 53.5487 28.1136C52.7438 27.909 52.2564 27.0905 52.461 26.2856L52.7483 25.1527C53.1786 23.4556 52.3451 21.6758 50.7684 20.919C47.9008 19.5454 46.3873 16.3107 47.1711 13.2294L47.4585 12.0965C47.6616 11.2886 48.4891 10.8026 49.2865 11.0088C50.0914 11.2134 50.5788 12.0319 50.3742 12.8368L50.0868 13.9697C49.6565 15.6667 50.4901 17.4466 52.0668 18.2034C54.9344 19.577 56.4479 22.8117 55.6641 25.8929L55.3767 27.0258C55.2052 27.7074 54.5914 28.1602 53.9203 28.1602Z" fill="#252627"/><path d="M13.8055 31.5964C14.6365 31.5964 15.3101 30.9228 15.3101 30.0919C15.3101 29.261 14.6365 28.5874 13.8055 28.5874C12.9746 28.5874 12.301 29.261 12.301 30.0919C12.301 30.9228 12.9746 31.5964 13.8055 31.5964Z" fill="#BE8A60"/><path d="M34.8686 28.5874C36.5305 28.5874 37.8777 27.2402 37.8777 25.5784C37.8777 23.9165 36.5305 22.5693 34.8686 22.5693C33.2068 22.5693 31.8596 23.9165 31.8596 25.5784C31.8596 27.2402 33.2068 28.5874 34.8686 28.5874Z" fill="#BE8A60"/><path d="M64.959 34.6052C65.7899 34.6052 66.4635 33.9316 66.4635 33.1007C66.4635 32.2698 65.7899 31.5962 64.959 31.5962C64.1281 31.5962 63.4545 32.2698 63.4545 33.1007C63.4545 33.9316 64.1281 34.6052 64.959 34.6052Z" fill="#BE8A60"/><path d="M3.27392 24.0737C4.93576 24.0737 6.28295 22.7265 6.28295 21.0647C6.28295 19.4029 4.93576 18.0557 3.27392 18.0557C1.61208 18.0557 0.264893 19.4029 0.264893 21.0647C0.264893 22.7265 1.61208 24.0737 3.27392 24.0737Z" fill="#BE8A60"/><path d="M69.4725 24.0737C71.1344 24.0737 72.4816 22.7265 72.4816 21.0647C72.4816 19.4029 71.1344 18.0557 69.4725 18.0557C67.8107 18.0557 66.4635 19.4029 66.4635 21.0647C66.4635 22.7265 67.8107 24.0737 69.4725 24.0737Z" fill="#BE8A60"/></svg>