<svg width="1435" height="635" fill="none" xmlns="http://www.w3.org/2000/svg"><path d="M493.336 437c-2.156-4.312-3.908-11.994-5.256-23.045-17.385 18.059-38.139 27.088-62.262 27.088-21.562 0-39.284-6.064-53.165-18.193-13.746-12.264-20.619-27.762-20.619-46.495 0-22.775 8.625-40.429 25.875-52.962 17.385-12.668 41.778-19.002 73.178-19.002h36.387v-17.183c0-13.072-3.909-23.449-11.725-31.131-7.816-7.816-19.339-11.724-34.567-11.724-13.342 0-24.528 3.369-33.557 10.107-9.029 6.738-13.544 14.892-13.544 24.46h-37.6c0-10.916 3.841-21.428 11.523-31.535 7.816-10.242 18.328-18.328 31.535-24.258 13.342-5.93 27.964-8.895 43.866-8.895 25.201 0 44.945 6.334 59.23 19.002 14.285 12.534 21.697 29.851 22.236 51.953v100.669c0 20.081 2.561 36.05 7.682 47.91V437h-39.217zm-62.06-28.503c11.725 0 22.843-3.032 33.355-9.097 10.512-6.064 18.126-13.948 22.843-23.651v-44.877h-29.312c-45.82 0-68.73 13.409-68.73 40.228 0 11.724 3.908 20.888 11.724 27.492 7.817 6.603 17.857 9.905 30.12 9.905zM601.89 437V247.183h-34.568v-28.908h34.568v-22.438c0-23.449 6.266-41.575 18.799-54.378 12.534-12.803 30.255-19.204 53.165-19.204 8.625 0 17.183 1.145 25.673 3.436l-2.021 30.323c-6.334-1.213-13.072-1.82-20.215-1.82-12.129 0-21.495 3.572-28.099 10.714-6.603 7.008-9.905 17.115-9.905 30.322v23.045h46.696v28.908h-46.696V437H601.89zm211.447 4.043c-29.649 0-53.772-9.703-72.369-29.109-18.598-19.541-27.897-45.619-27.897-78.232v-6.873c0-21.697 4.111-41.036 12.331-58.017 8.356-17.115 19.946-30.457 34.77-40.025 14.959-9.703 31.131-14.555 48.516-14.555 28.435 0 50.537 9.367 66.304 28.099 15.768 18.732 23.652 45.551 23.652 80.455v15.566H750.469c.539 21.562 6.805 39.014 18.8 52.356 12.128 13.207 27.492 19.811 46.089 19.811 13.207 0 24.393-2.696 33.557-8.086 9.164-5.391 17.183-12.534 24.056-21.428l22.842 17.789c-18.328 28.166-45.82 42.249-82.476 42.249zm-4.649-196.084c-15.094 0-27.762 5.525-38.004 16.576-10.243 10.916-16.577 26.279-19.002 46.09h109.564v-2.83c-1.078-19.002-6.199-33.691-15.363-44.068-9.164-10.512-21.563-15.768-37.195-15.768z" fill="#C59872"/><path d="M1043.99 255.471l70.55-112.799h45.68l-92.98 145.951L1162.45 437h-46.09l-72.37-114.82L971.215 437h-45.888l95.413-148.377-93.189-145.951h45.483l70.956 112.799zm202.35 66.304V437h-38.81V142.672h108.55c32.21 0 57.41 8.221 75.6 24.662 18.33 16.441 27.5 38.206 27.5 65.294 0 28.57-8.97 50.604-26.89 66.102-17.79 15.364-43.33 23.045-76.61 23.045h-69.34zm0-31.737h69.74c20.75 0 36.66-4.851 47.71-14.555 11.05-9.837 16.57-23.988 16.57-42.451 0-17.519-5.52-31.535-16.57-42.047-11.05-10.511-26.21-15.969-45.49-16.374h-71.96v115.427z" fill="#fff"/><g clip-path="url(#clip0)"><path d="M164.018 178.322c-53.165-.226-96.375 42.879-96.601 96.195-.226 53.315 42.758 96.648 95.922 96.875 53.165.227 96.375-42.879 96.601-96.195.226-53.542-42.758-96.875-95.922-96.875zm48.64 145.653c2.262-6.806 3.619-14.293 3.619-22.007 0-38.341-30.767-69.423-69-69.65-19.23 0-36.424 7.714-49.093 20.192 9.276-27.452 35.293-47.417 65.834-47.19 38.233 0 69.227 31.309 69.001 69.65 0 19.058-7.919 36.527-20.361 49.005z" fill="#fff"/><path d="M183.474 111.849c-2.941-.454-5.882-.681-9.049-.908-10.407 13.386-16.063 27.225-19.23 39.703 2.941-.227 5.882-.227 8.823-.227 6.108 0 11.99.454 17.872 1.361 3.167 13.386 8.597 22.461 8.597 22.461s-6.335-37.207 20.813-68.289c34.614-39.703-10.18-76.456-10.18-76.456s20.361 28.813-9.502 67.608c-3.62 4.764-6.334 9.755-8.144 14.747z" fill="#C59872"/><path d="M217.409 120.924c-9.954 11.57-15.384 23.821-18.325 34.711 44.794 13.386 75.873 44.865 75.873 78.463H315c-9-54.098-39.45-93.89-96.913-114.082-.226.227-.226.454-.678.908z" fill="#C59872"/><path d="M163.34 399.297c-68.549-.227-123.975-56.038-123.75-124.78.227-59.895 42.306-109.58 98.412-121.377 3.846 12.704 8.596 21.099 8.596 21.099s-7.465-44.694 24.886-82.128C213.337 44.013 159.494 0 159.494 0s24.433 34.712-11.538 81.22c-7.918 10.21-11.99 21.327-13.574 31.99C58.142 127.049.227 193.75 0 274.29-.226 365.039 72.847 438.773 163.34 439c83.253.227 142.254-41.936 152.66-122.703h-40.043c-10.18 58.533-51.309 83-112.617 83z" fill="#C59872"/><rect x="249" y="264" width="52" height="23" rx="11.5" fill="#fff"/></g><path d="M259.547 588.441c-.879 7.52-3.662 13.33-8.35 17.432-4.655 4.069-10.856 6.104-18.603 6.104-8.399 0-15.137-3.012-20.215-9.034-5.046-6.022-7.568-14.078-7.568-24.17v-6.835c0-6.609 1.171-12.419 3.515-17.432 2.376-5.013 5.729-8.854 10.059-11.524 4.329-2.701 9.342-4.052 15.039-4.052 7.552 0 13.607 2.116 18.164 6.347 4.557 4.2 7.21 10.026 7.959 17.481h-9.424c-.814-5.664-2.588-9.766-5.322-12.305-2.702-2.539-6.494-3.808-11.377-3.808-5.99 0-10.694 2.213-14.112 6.64-3.385 4.427-5.078 10.726-5.078 18.897v6.884c0 7.715 1.612 13.851 4.834 18.409 3.223 4.557 7.731 6.836 13.526 6.836 5.208 0 9.196-1.172 11.963-3.516 2.799-2.376 4.655-6.494 5.566-12.354h9.424zm44.033-4.345c0-5.176 1.009-9.831 3.027-13.965 2.051-4.134 4.883-7.324 8.497-9.57 3.645-2.247 7.796-3.37 12.451-3.37 7.194 0 13.004 2.491 17.431 7.471 4.46 4.981 6.69 11.605 6.69 19.873v.635c0 5.143-.993 9.766-2.979 13.867-1.953 4.069-4.769 7.243-8.447 9.522-3.646 2.278-7.845 3.418-12.598 3.418-7.161 0-12.972-2.491-17.431-7.471-4.427-4.981-6.641-11.572-6.641-19.776v-.634zm9.082 1.074c0 5.859 1.351 10.563 4.053 14.111 2.734 3.548 6.38 5.323 10.937 5.323 4.59 0 8.236-1.791 10.938-5.372 2.702-3.613 4.053-8.658 4.053-15.136 0-5.795-1.384-10.482-4.151-14.063-2.734-3.613-6.38-5.42-10.937-5.42-4.46 0-8.057 1.774-10.791 5.323-2.735 3.548-4.102 8.626-4.102 15.234zM402.447 611v-45.85h-8.349v-6.982h8.349v-5.42c0-5.664 1.514-10.042 4.541-13.135 3.028-3.092 7.308-4.638 12.842-4.638 2.083 0 4.15.276 6.201.83l-.488 7.324a25.945 25.945 0 00-4.883-.44c-2.93 0-5.192.863-6.787 2.588-1.595 1.693-2.393 4.134-2.393 7.325v5.566h11.28v6.982h-11.28V611h-9.033zm69.766 0v-45.85h-8.35v-6.982h8.35v-5.42c0-5.664 1.514-10.042 4.541-13.135 3.027-3.092 7.308-4.638 12.842-4.638 2.083 0 4.15.276 6.201.83l-.488 7.324a25.945 25.945 0 00-4.883-.44c-2.93 0-5.192.863-6.787 2.588-1.595 1.693-2.393 4.134-2.393 7.325v5.566h11.279v6.982h-11.279V611h-9.033zm86.074.977c-7.161 0-12.988-2.344-17.48-7.032-4.493-4.72-6.739-11.019-6.739-18.896v-1.66c0-5.241.993-9.912 2.979-14.014 2.018-4.134 4.818-7.357 8.398-9.668 3.614-2.344 7.52-3.516 11.719-3.516 6.869 0 12.207 2.263 16.016 6.788 3.808 4.524 5.713 11.002 5.713 19.433v3.76h-35.791c.13 5.208 1.643 9.424 4.541 12.646 2.929 3.19 6.64 4.786 11.132 4.786 3.19 0 5.892-.652 8.106-1.954 2.213-1.302 4.15-3.027 5.81-5.175l5.518 4.296c-4.427 6.804-11.068 10.206-19.922 10.206zm-1.123-47.364c-3.646 0-6.706 1.335-9.18 4.004-2.474 2.637-4.004 6.348-4.589 11.133h26.464v-.684c-.26-4.589-1.497-8.138-3.711-10.644-2.213-2.539-5.208-3.809-8.984-3.809zm89.15 47.364c-7.161 0-12.988-2.344-17.48-7.032-4.492-4.72-6.738-11.019-6.738-18.896v-1.66c0-5.241.993-9.912 2.978-14.014 2.018-4.134 4.818-7.357 8.399-9.668 3.613-2.344 7.519-3.516 11.718-3.516 6.869 0 12.207 2.263 16.016 6.788 3.809 4.524 5.713 11.002 5.713 19.433v3.76h-35.791c.13 5.208 1.644 9.424 4.541 12.646 2.93 3.19 6.641 4.786 11.133 4.786 3.19 0 5.892-.652 8.105-1.954 2.214-1.302 4.151-3.027 5.811-5.175l5.517 4.296c-4.427 6.804-11.067 10.206-19.922 10.206zm-1.123-47.364c-3.645 0-6.705 1.335-9.179 4.004-2.474 2.637-4.004 6.348-4.59 11.133h26.465v-.684c-.261-4.589-1.498-8.138-3.711-10.644-2.214-2.539-5.209-3.809-8.985-3.809zM828.277 611h-9.423v-32.861h-35.84V611h-9.375v-71.094h9.375v30.567h35.84v-30.567h9.423V611zm47.842-26.904c0-5.176 1.009-9.831 3.027-13.965 2.051-4.134 4.883-7.324 8.497-9.57 3.645-2.247 7.796-3.37 12.451-3.37 7.194 0 13.004 2.491 17.431 7.471 4.46 4.981 6.69 11.605 6.69 19.873v.635c0 5.143-.993 9.766-2.979 13.867-1.953 4.069-4.769 7.243-8.447 9.522-3.646 2.278-7.845 3.418-12.598 3.418-7.161 0-12.972-2.491-17.431-7.471-4.427-4.981-6.641-11.572-6.641-19.776v-.634zm9.082 1.074c0 5.859 1.351 10.563 4.053 14.111 2.734 3.548 6.38 5.323 10.937 5.323 4.59 0 8.236-1.791 10.938-5.372 2.702-3.613 4.053-8.658 4.053-15.136 0-5.795-1.384-10.482-4.151-14.063-2.734-3.613-6.38-5.42-10.937-5.42-4.46 0-8.057 1.774-10.791 5.323-2.735 3.548-4.102 8.626-4.102 15.234zm117.959 20.605c-3.515 4.135-8.675 6.202-15.478 6.202-5.632 0-9.929-1.628-12.891-4.883-2.93-3.288-4.411-8.138-4.443-14.551v-34.375h9.033v34.131c0 8.008 3.255 12.012 9.765 12.012 6.902 0 11.494-2.572 13.774-7.715v-38.428h9.03V611h-8.59l-.2-5.225zm88.32-8.789c0-2.441-.93-4.329-2.78-5.664-1.83-1.367-5.03-2.539-9.62-3.515-4.56-.977-8.19-2.149-10.89-3.516-2.67-1.367-4.66-2.995-5.96-4.883-1.27-1.888-1.9-4.134-1.9-6.738 0-4.33 1.82-7.992 5.47-10.986 3.68-2.995 8.36-4.493 14.06-4.493 5.99 0 10.84 1.547 14.55 4.639 3.74 3.093 5.62 7.048 5.62 11.865h-9.09c0-2.474-1.05-4.606-3.17-6.396-2.08-1.791-4.72-2.686-7.91-2.686-3.29 0-5.86.716-7.72 2.149-1.85 1.432-2.78 3.304-2.78 5.615 0 2.181.86 3.825 2.59 4.932 1.72 1.106 4.83 2.164 9.33 3.173 4.52 1.01 8.18 2.214 10.98 3.614 2.8 1.399 4.87 3.092 6.2 5.078 1.37 1.953 2.05 4.346 2.05 7.178 0 4.72-1.88 8.512-5.66 11.377-3.78 2.832-8.68 4.248-14.7 4.248-4.23 0-7.97-.749-11.23-2.247-3.25-1.497-5.81-3.58-7.66-6.25-1.83-2.701-2.74-5.615-2.74-8.74h9.03c.17 3.028 1.37 5.436 3.62 7.227 2.28 1.758 5.27 2.637 8.98 2.637 3.42 0 6.15-.684 8.21-2.051 2.08-1.4 3.12-3.255 3.12-5.567zm77.73 14.991c-7.17 0-12.99-2.344-17.49-7.032-4.49-4.72-6.73-11.019-6.73-18.896v-1.66c0-5.241.99-9.912 2.97-14.014 2.02-4.134 4.82-7.357 8.4-9.668 3.62-2.344 7.52-3.516 11.72-3.516 6.87 0 12.21 2.263 16.02 6.788 3.81 4.524 5.71 11.002 5.71 19.433v3.76h-35.79c.13 5.208 1.64 9.424 4.54 12.646 2.93 3.19 6.64 4.786 11.13 4.786 3.19 0 5.9-.652 8.11-1.954 2.21-1.302 4.15-3.027 5.81-5.175l5.52 4.296c-4.43 6.804-11.07 10.206-19.92 10.206zm-1.13-47.364c-3.64 0-6.7 1.335-9.18 4.004-2.47 2.637-4 6.348-4.59 11.133h26.47v-.684c-.26-4.589-1.5-8.138-3.71-10.644-2.22-2.539-5.21-3.809-8.99-3.809z" fill="#fff"/><defs><clipPath id="clip0"><path fill="#fff" d="M0 0h326v439H0z"/></clipPath></defs></svg>